<svg xmlns="http://www.w3.org/2000/svg" version="1.0" width="1174.000000pt" height="894.000000pt" viewBox="0 0 1174.000000 894.000000" preserveAspectRatio="xMidYMid meet">

<g transform="translate(0.000000,894.000000) scale(0.100000,-0.100000)" fill="#2b5a36" stroke="none">
<path d="M5900 8314 c-58 -25 -98 -62 -120 -111 -24 -56 -26 -141 -4 -186 21 -41 71 -95 106 -113 l27 -14 3 -454 c3 -430 4 -455 22 -475 23 -26 78 -28 97 -4 11 13 14 78 15 317 1 166 5 371 9 457 l7 156 47 34 c118 87 126 266 16 357 -63 51 -156 66 -225 36z m129 -150 c23 -19 31 -34 31 -58 0 -72 -91 -105 -137 -51 -31 36 -29 71 6 106 36 36 60 37 100 3z" fill="#2b5a36"/>
<path d="M5741 7538 c-12 -31 -169 -266 -228 -340 -80 -101 -254 -310 -298 -358 -55 -59 -214 -234 -294 -324 -271 -302 -469 -608 -569 -881 -56 -150 -92 -385 -92 -592 0 -253 46 -493 129 -675 23 -52 47 -72 141 -117 338 -164 828 -175 1255 -27 85 29 260 99 335 133 307 142 481 185 740 186 227 0 436 -45 633 -137 43 -20 82 -34 86 -31 19 11 77 218 108 385 20 108 22 421 4 540 -32 210 -78 354 -173 545 -139 280 -338 538 -770 1000 -25 28 -57 64 -69 80 -13 17 -36 44 -52 60 -105 111 -407 528 -407 562 0 19 -17 16 -25 -4 -4 -10 -10 -148 -13 -307 -5 -327 -7 -336 -79 -403 l-44 -42 -15 -463 c-9 -255 -19 -533 -24 -618 -5 -85 -12 -217 -16 -293 -4 -76 -11 -140 -15 -142 -14 -9 -27 61 -34 185 -20 369 -25 492 -34 780 -6 173 -13 370 -16 438 l-7 123 -36 27 c-19 15 -46 49 -58 77 -21 44 -24 65 -24 171 0 205 -13 484 -22 484 -5 0 -12 -10 -17 -22z m1419 -1615 c0 -106 -28 -330 -51 -408 -50 -171 -87 -251 -166 -362 -126 -178 -304 -308 -556 -408 -128 -52 -153 -53 -136 -8 42 112 211 418 312 566 33 48 139 191 146 197 19 15 73 92 68 96 -15 15 -60 -19 -177 -134 -170 -169 -311 -363 -440 -610 -47 -89 -67 -113 -74 -91 -25 78 -32 239 -15 333 50 266 205 516 418 676 167 126 435 225 614 229 l57 1 0 -77z m-2271 -123 c283 -57 519 -176 691 -350 165 -165 285 -407 345 -693 13 -64 24 -234 19 -284 -10 -83 -33 -73 -79 35 -155 366 -359 620 -664 831 -41 28 -81 51 -90 51 -8 0 33 -48 92 -107 123 -124 192 -209 283 -345 65 -97 151 -257 192 -356 26 -64 17 -72 -62 -52 -240 61 -413 151 -565 295 -225 214 -330 478 -348 873 l-5 122 45 0 c25 0 90 -9 146 -20z" fill="#2b5a36"/>
<path d="M6785 4385 c-100 -14 -180 -29 -240 -45 -22 -6 -56 -15 -76 -20 -83 -21 -205 -71 -387 -156 -51 -24 -96 -44 -100 -44 -5 0 -27 -9 -50 -20 -66 -32 -239 -88 -348 -112 -87 -20 -128 -22 -339 -22 -209 0 -255 2 -359 22 -134 26 -234 60 -307 103 -27 15 -49 26 -49 23 0 -12 27 -54 84 -129 405 -537 1115 -784 1801 -626 447 104 856 421 1083 843 65 121 66 130 22 140 -243 54 -532 71 -735 43z m311 -176 c60 -6 113 -14 117 -18 4 -5 -16 -11 -45 -14 -29 -4 -96 -11 -148 -17 -100 -11 -234 -35 -285 -51 -199 -60 -267 -91 -635 -281 -91 -47 -176 -88 -190 -92 -166 -46 -237 -56 -407 -56 -203 0 -390 33 -525 93 -40 17 -34 30 10 23 97 -15 367 -19 450 -6 255 38 386 76 610 177 401 180 538 222 777 242 146 12 152 12 271 0z" fill="#2b5a36"/>
<path d="M1542 2608 c-6 -7 -46 -119 -90 -248 -44 -129 -104 -300 -132 -380 -28 -80 -63 -179 -77 -220 -32 -95 -55 -127 -96 -135 -63 -13 -68 -16 -65 -38 3 -21 7 -22 176 -25 148 -2 173 0 178 13 8 21 -14 45 -41 45 -54 0 -67 57 -39 176 26 112 8 104 218 104 l184 0 9 -27 c52 -143 66 -224 41 -239 -6 -4 -25 -10 -42 -13 -24 -5 -32 -13 -34 -34 l-3 -27 195 0 c120 0 197 4 201 10 12 20 -6 49 -33 52 -48 5 -111 128 -215 423 -14 39 -47 126 -75 195 -40 101 -112 308 -128 368 -2 8 -24 12 -62 12 -36 0 -64 -5 -70 -12z m77 -320 c49 -144 79 -226 92 -250 5 -10 9 -27 9 -38 0 -20 -5 -20 -147 -18 l-148 3 1 25 c1 21 117 369 131 393 12 20 24 -3 62 -115z" fill="#2b5a36"/>
<path d="M3783 2608 c-6 -7 -38 -96 -73 -198 -34 -102 -80 -234 -102 -295 -22 -60 -61 -174 -88 -252 -75 -221 -84 -234 -163 -248 -31 -6 -38 -11 -35 -29 3 -20 8 -21 181 -24 l178 -2 -3 27 c-2 22 -10 29 -35 34 -49 10 -63 26 -63 75 0 42 17 122 39 177 l11 27 186 -2 187 -3 28 -85 c30 -91 37 -158 17 -178 -7 -7 -24 -12 -39 -12 -28 0 -47 -28 -34 -50 4 -6 80 -10 200 -10 171 0 194 2 199 17 8 20 -5 34 -46 47 -46 16 -60 46 -273 591 -37 94 -73 190 -81 215 -8 25 -19 54 -24 65 -5 11 -14 38 -21 60 -19 60 -26 65 -84 65 -30 0 -57 -5 -62 -12z m55 -259 c8 -24 39 -110 68 -190 30 -80 54 -153 54 -162 0 -15 -15 -17 -144 -17 -89 0 -147 4 -151 10 -4 6 11 61 34 123 22 62 50 144 62 182 38 122 52 132 77 54z" fill="#2b5a36"/>
<path d="M5784 2613 c-16 -3 -36 -43 -101 -206 -45 -111 -89 -222 -98 -247 -9 -25 -32 -83 -52 -130 -19 -47 -39 -96 -45 -110 -18 -44 -24 -54 -35 -57 -6 -2 -78 164 -160 369 l-149 373 -130 2 c-71 0 -137 -3 -146 -8 -23 -12 -23 -38 0 -45 98 -32 98 -32 83 -313 -11 -212 -24 -396 -37 -518 -6 -63 -28 -92 -74 -102 -28 -5 -36 -12 -38 -34 l-3 -27 170 0 c163 0 171 1 171 20 0 21 -27 40 -59 40 -11 0 -29 12 -42 28 -21 27 -21 30 -14 237 14 390 20 480 30 480 5 0 66 -144 136 -320 203 -512 197 -499 239 -488 16 4 70 128 130 298 12 33 44 119 72 190 27 72 63 166 80 210 37 99 49 125 59 125 9 0 17 -145 25 -468 6 -233 5 -255 -11 -272 -10 -11 -31 -20 -46 -20 -30 0 -62 -25 -56 -44 2 -7 65 -12 201 -14 169 -2 197 0 202 13 8 21 -11 41 -46 48 -52 11 -62 51 -80 322 -6 88 -13 250 -16 360 -7 224 -7 223 66 242 24 6 36 16 38 30 3 19 -3 21 -105 27 -59 4 -115 9 -123 10 -8 2 -24 1 -36 -1z" fill="#2b5a36"/>
<path d="M10393 2612 c-12 -8 -35 -69 -137 -362 -30 -85 -67 -189 -82 -230 -15 -41 -49 -138 -75 -215 -51 -146 -76 -185 -123 -185 -32 0 -61 -24 -53 -44 6 -14 28 -16 182 -16 l176 0 -3 28 c-2 22 -8 28 -35 30 -66 6 -79 73 -40 202 l23 75 184 3 c140 2 185 -1 192 -10 4 -7 22 -57 39 -111 38 -117 34 -140 -31 -157 -33 -9 -40 -15 -40 -36 l0 -24 198 2 197 3 0 24 c0 18 -8 26 -35 35 -30 10 -40 22 -82 106 -26 52 -48 101 -48 108 0 7 -9 34 -21 60 -38 85 -73 176 -114 292 -14 41 -30 84 -35 95 -23 51 -110 288 -110 301 0 7 -9 18 -19 24 -23 12 -91 13 -108 2z m46 -264 c12 -35 31 -85 41 -113 61 -163 81 -228 76 -241 -5 -12 -30 -14 -148 -12 l-143 3 2 27 c1 15 8 42 17 60 8 18 36 98 62 178 26 80 49 148 51 153 10 18 22 3 42 -55z" fill="#2b5a36"/>
<path d="M2262 2601 c-25 -15 -9 -45 27 -52 18 -4 43 -17 55 -28 21 -21 21 -26 21 -437 l0 -416 -28 -24 c-15 -13 -39 -24 -52 -24 -24 0 -42 -30 -30 -50 4 -6 82 -10 206 -10 l199 0 0 25 c0 26 -3 29 -53 39 -15 4 -36 15 -47 26 -18 18 -20 34 -20 191 l0 172 56 -6 c91 -9 138 -57 241 -247 104 -190 120 -202 273 -198 94 3 95 3 95 28 0 19 -6 26 -30 30 -65 14 -95 47 -193 217 -23 39 -69 100 -102 134 -45 48 -57 66 -48 76 6 7 19 13 30 13 27 0 73 26 118 66 78 71 104 218 56 319 -35 77 -97 123 -191 143 -63 13 -565 25 -583 13z m533 -104 c63 -35 87 -92 83 -194 -3 -72 -7 -86 -33 -125 -46 -65 -90 -83 -205 -83 l-95 0 -3 213 -2 212 107 0 c93 0 114 -3 148 -23z" fill="#2b5a36"/>
<path d="M6224 2601 c-2 -2 -4 -14 -4 -26 0 -17 9 -23 43 -31 71 -15 72 -19 75 -411 5 -455 -4 -505 -88 -515 -19 -2 -25 -9 -25 -28 l0 -25 383 -3 c301 -2 383 0 386 10 2 7 13 62 24 123 20 107 19 124 -10 125 -11 0 -37 -30 -78 -89 -58 -84 -119 -101 -342 -93 l-67 2 -11 38 c-7 22 -10 104 -8 207 l3 170 109 3 c127 3 147 -5 177 -74 20 -44 38 -54 57 -31 6 7 9 67 8 147 -2 130 -3 135 -23 138 -16 2 -28 -7 -47 -36 -31 -49 -79 -64 -196 -60 l-85 3 0 185 0 185 129 3 c184 4 208 -5 297 -116 6 -7 18 -12 27 -10 14 3 17 20 20 108 l3 105 -376 0 c-207 1 -378 -1 -381 -4z" fill="#2b5a36"/>
<path d="M7174 2596 c-10 -27 3 -43 41 -50 63 -12 65 -25 65 -435 0 -339 -7 -450 -30 -475 -5 -4 -23 -11 -42 -15 -27 -6 -33 -12 -33 -31 l0 -25 285 0 c324 0 365 7 493 76 83 46 125 84 171 154 62 93 79 156 80 290 1 122 -10 170 -59 265 -38 74 -128 155 -220 199 -97 47 -137 52 -447 57 -266 5 -299 4 -304 -10z m577 -95 c73 -28 158 -89 192 -138 61 -88 84 -225 62 -377 -16 -118 -49 -190 -111 -245 -84 -74 -170 -101 -325 -101 -102 0 -107 1 -113 23 -11 42 -7 842 5 854 6 6 52 9 122 8 85 -2 125 -8 168 -24z" fill="#2b5a36"/>
<path d="M8328 2599 c-16 -10 -4 -44 17 -47 42 -7 73 -24 84 -48 8 -17 11 -150 11 -428 0 -393 -1 -404 -21 -430 -14 -18 -30 -26 -50 -26 -22 0 -32 -6 -38 -22 -5 -13 -6 -26 -2 -31 4 -4 95 -6 202 -5 192 3 194 3 197 25 3 17 -3 24 -25 28 -52 11 -73 25 -83 51 -6 15 -10 189 -10 427 0 453 -3 436 75 456 46 12 57 29 31 50 -15 12 -368 12 -388 0z" fill="#2b5a36"/>
<path d="M8864 2595 c-10 -25 4 -45 31 -45 14 0 37 -11 50 -25 29 -28 27 17 25 -520 0 -379 1 -369 -71 -384 -28 -6 -34 -12 -34 -31 l0 -25 195 0 195 0 0 25 c0 19 -6 25 -34 31 -18 4 -40 14 -49 23 -20 20 -30 95 -31 236 l-1 116 43 42 c23 23 50 42 58 42 15 0 42 -36 196 -264 103 -151 107 -160 84 -180 -10 -9 -27 -16 -39 -16 -21 0 -39 -31 -27 -50 4 -6 81 -10 201 -10 l194 0 0 25 c0 18 -8 28 -32 39 -38 16 -88 66 -147 146 -22 30 -58 80 -80 110 -22 30 -79 107 -126 170 -64 86 -85 123 -85 146 0 27 20 51 146 174 106 103 161 149 199 166 51 24 74 47 55 59 -13 8 -307 18 -335 11 -29 -7 -34 -44 -7 -52 72 -24 80 -54 31 -128 -67 -101 -299 -343 -318 -332 -12 8 -14 264 -2 359 8 65 24 86 72 96 28 6 34 12 34 31 l0 25 -193 3 c-165 2 -193 0 -198 -13z" fill="#2b5a36"/>
<path d="M2573 1204 c-36 -16 -40 -25 -18 -44 12 -10 15 -50 17 -214 l3 -201 65 -3 c123 -6 200 57 200 162 0 73 -35 126 -92 140 -28 6 -78 -8 -89 -26 -4 -6 -15 -8 -24 -4 -14 5 -16 20 -15 94 3 129 7 120 -47 96z m180 -214 c43 -34 47 -137 7 -190 -15 -20 -27 -24 -71 -25 -62 0 -66 7 -68 121 -1 56 3 74 17 86 37 33 79 36 115 8z" fill="#2b5a36"/>
<path d="M5990 1209 c-8 -5 -25 -9 -37 -9 -26 0 -32 -27 -8 -36 13 -5 15 -37 15 -199 0 -119 -4 -196 -10 -200 -23 -14 -7 -25 40 -25 45 0 67 13 38 22 -12 4 -15 89 -3 107 15 25 45 10 71 -36 40 -70 64 -93 96 -93 32 0 37 15 10 29 -10 5 -29 30 -42 55 -12 25 -31 53 -41 62 -11 10 -19 25 -19 34 0 17 64 81 106 107 16 10 11 12 -34 12 -49 1 -53 -1 -47 -19 5 -14 -6 -33 -41 -70 -26 -27 -51 -50 -55 -50 -5 0 -9 69 -9 154 0 85 -4 157 -8 160 -4 2 -14 1 -22 -5z" fill="#2b5a36"/>
<path d="M1885 1203 c-33 -8 -41 -22 -20 -37 18 -13 20 -28 20 -207 0 -145 -3 -193 -12 -196 -31 -11 -8 -23 42 -23 53 0 72 11 40 24 -12 4 -15 26 -15 105 0 112 7 126 65 137 69 13 82 -8 84 -137 1 -66 -2 -90 -14 -102 -24 -24 -19 -27 43 -27 49 1 55 2 40 14 -15 11 -18 30 -18 124 0 103 -2 113 -24 139 -31 36 -91 38 -135 5 -17 -12 -33 -22 -36 -22 -3 0 -5 47 -5 105 0 113 1 111 -55 98z" fill="#2b5a36"/>
<path d="M7783 1200 c-28 -11 -29 -26 -3 -40 19 -10 20 -21 20 -195 0 -150 -3 -186 -15 -199 -23 -23 -19 -26 35 -26 54 0 58 3 35 26 -31 31 -8 120 29 112 9 -1 35 -32 58 -68 37 -55 48 -65 76 -68 37 -4 41 7 12 33 -22 20 -100 137 -100 151 0 12 95 94 109 94 6 0 11 5 11 10 0 6 -23 10 -50 10 -49 0 -50 -1 -44 -25 5 -21 -2 -33 -39 -70 -75 -73 -77 -70 -77 110 0 169 0 168 -57 145z" fill="#2b5a36"/>
<path d="M10156 1201 c-36 -8 -44 -26 -17 -41 17 -9 21 -20 21 -67 l0 -56 -38 7 c-58 9 -106 -9 -146 -55 -40 -47 -50 -90 -37 -151 20 -90 123 -131 185 -73 l26 24 16 -24 c10 -15 26 -25 40 -25 29 0 38 14 19 30 -12 10 -15 49 -15 226 0 165 -3 214 -12 213 -7 -1 -26 -4 -42 -8z m2 -209 c7 -9 12 -46 12 -89 0 -65 -3 -77 -25 -98 -36 -37 -106 -35 -131 2 -43 66 -24 180 35 202 34 13 93 4 109 -17z" fill="#2b5a36"/>
<path d="M1284 1166 c-17 -8 -39 -24 -48 -37 -18 -26 -21 -90 -6 -120 10 -17 112 -89 128 -89 4 0 22 -14 40 -31 62 -58 29 -129 -60 -129 -36 0 -51 6 -72 26 -14 15 -26 33 -26 40 0 8 -4 14 -10 14 -5 0 -10 -18 -10 -40 0 -51 17 -60 114 -60 71 0 76 2 110 34 30 27 36 40 36 73 0 52 -24 82 -103 129 -76 46 -107 79 -107 115 0 65 91 93 144 44 14 -13 26 -29 26 -35 0 -5 5 -10 10 -10 14 0 13 67 -1 76 -23 14 -134 14 -165 0z" fill="#2b5a36"/>
<path d="M5195 1164 c-20 -20 -4 -44 30 -44 34 0 50 24 30 44 -9 9 -23 16 -30 16 -7 0 -21 -7 -30 -16z" fill="#2b5a36"/>
<path d="M3555 1145 c-3 -8 -7 -22 -10 -31 -10 -31 5 -32 34 -3 24 24 38 29 75 29 37 0 46 -3 46 -17 1 -10 1 -92 1 -183 0 -137 -2 -166 -15 -176 -24 -17 -8 -24 51 -24 51 0 70 12 38 24 -13 5 -15 32 -13 188 l3 183 39 3 c28 2 47 -3 68 -18 l28 -21 0 31 0 30 -170 0 c-143 0 -171 -2 -175 -15z" fill="#2b5a36"/>
<path d="M5646 1148 c-60 -189 -123 -358 -141 -378 -23 -26 -19 -30 30 -30 42 0 58 11 35 25 -25 16 2 110 34 119 34 9 116 7 136 -4 24 -13 44 -74 36 -111 -5 -29 -5 -29 44 -29 28 0 50 2 50 4 0 3 -9 20 -19 38 -22 38 -117 273 -135 333 -10 32 -17 41 -39 43 -16 2 -29 -2 -31 -10z m57 -130 c15 -40 27 -79 27 -85 0 -9 -20 -13 -65 -13 -58 0 -65 2 -65 19 0 11 5 23 10 26 6 3 10 12 10 20 0 20 38 105 47 105 5 0 21 -33 36 -72z" fill="#2b5a36"/>
<path d="M9270 1141 c-5 -11 -10 -28 -10 -38 0 -11 -4 -23 -8 -28 -5 -6 -19 -39 -31 -75 -12 -36 -28 -78 -36 -95 -7 -16 -20 -54 -30 -83 -9 -29 -23 -56 -31 -59 -30 -11 -12 -23 36 -23 28 0 50 5 50 10 0 6 -7 10 -15 10 -30 0 -3 115 29 124 27 7 105 7 132 0 27 -7 62 -100 45 -117 -20 -20 -11 -27 37 -27 58 0 68 7 42 29 -10 9 -33 54 -50 101 -58 156 -92 245 -103 268 -13 27 -43 29 -57 3z m40 -93 c6 -18 18 -48 26 -66 24 -57 21 -62 -46 -62 -68 0 -68 -1 -42 80 28 90 42 101 62 48z" fill="#2b5a36"/>
<path d="M3245 1081 c-10 -22 -25 -43 -34 -46 -13 -6 -12 -8 7 -16 21 -8 22 -13 22 -121 0 -136 10 -158 69 -158 22 0 44 6 51 15 11 13 8 15 -19 15 -41 0 -51 26 -51 135 0 110 2 115 57 115 27 0 42 4 38 10 -3 6 -24 10 -45 10 -35 0 -40 3 -46 28 -14 66 -24 69 -49 13z" fill="#2b5a36"/>
<path d="M8162 1108 c-7 -7 -12 -18 -12 -25 0 -8 -11 -25 -26 -38 -24 -23 -25 -23 -5 -30 19 -6 21 -14 21 -113 0 -129 10 -156 60 -160 20 -2 44 4 55 12 19 15 19 15 -11 16 -49 0 -55 16 -52 136 l3 109 43 3 c23 2 42 7 42 12 0 5 -19 10 -42 12 -40 3 -43 5 -46 33 -4 37 -14 49 -30 33z" fill="#2b5a36"/>
<path d="M1616 1042 c-38 -9 -75 -57 -57 -75 10 -10 18 -5 40 21 22 28 32 33 61 30 42 -4 67 -40 56 -81 -6 -27 -12 -30 -87 -42 -58 -9 -89 -39 -89 -85 0 -29 6 -43 22 -54 32 -23 94 -21 115 4 10 11 23 20 29 20 6 0 14 -9 17 -20 4 -15 14 -20 36 -20 34 0 37 6 16 34 -11 15 -15 48 -15 122 0 82 -3 106 -17 123 -20 23 -80 34 -127 23z m104 -194 c0 -64 -90 -105 -124 -56 -21 30 -20 35 10 63 20 19 38 25 70 25 43 0 44 -1 44 -32z" fill="#2b5a36"/>
<path d="M2313 1043 c-36 -5 -83 -57 -66 -74 13 -13 41 -1 48 22 13 41 94 38 108 -4 16 -48 2 -75 -41 -82 -113 -19 -161 -79 -116 -143 20 -30 93 -31 119 -2 17 19 17 19 -19 13 -44 -7 -66 9 -66 48 0 34 40 59 95 59 32 0 35 -2 35 -31 0 -17 -4 -39 -10 -49 -7 -13 -6 -19 5 -24 8 -3 15 -12 15 -21 0 -10 10 -15 29 -15 35 0 46 13 26 30 -12 10 -15 36 -15 116 0 92 -2 106 -22 129 -24 27 -66 36 -125 28z" fill="#2b5a36"/>
<path d="M2975 1040 c-34 -11 -55 -35 -55 -62 0 -28 26 -21 50 12 16 22 29 30 52 30 38 0 57 -24 58 -72 0 -35 -2 -37 -37 -43 -72 -12 -82 -15 -112 -41 -57 -48 -30 -124 45 -124 37 0 74 15 74 29 0 5 -9 7 -20 4 -11 -3 -31 -2 -45 1 -21 5 -25 12 -25 41 0 42 29 65 83 65 l39 0 -3 -47 c-4 -58 13 -93 45 -93 30 0 39 10 24 27 -7 9 -13 57 -14 120 -2 97 -4 108 -27 130 -27 28 -85 38 -132 23z" fill="#2b5a36"/>
<path d="M4015 1043 c-53 -14 -95 -87 -95 -165 0 -89 46 -137 130 -138 33 0 53 7 75 24 39 31 29 40 -23 20 -68 -27 -119 6 -125 81 l-2 30 100 5 c99 5 100 5 98 30 -2 41 -21 78 -46 95 -28 18 -81 26 -112 18z m85 -43 c11 -11 20 -33 20 -50 l0 -30 -69 0 c-39 0 -72 4 -75 9 -9 13 12 64 31 79 25 18 70 15 93 -8z" fill="#2b5a36"/>
<path d="M4275 1043 c-48 -10 -51 -13 -28 -31 18 -15 22 -30 26 -119 4 -80 2 -105 -10 -123 -8 -12 -13 -23 -10 -26 3 -3 31 -4 63 -2 45 3 54 5 39 12 -32 15 -35 25 -35 124 0 79 3 95 20 112 21 21 74 27 85 10 10 -16 25 -11 25 8 0 44 -50 55 -94 21 -27 -21 -46 -18 -46 7 0 14 -1 15 -35 7z" fill="#2b5a36"/>
<path d="M4581 1041 c-54 -10 -94 -81 -46 -81 8 0 22 14 32 30 13 23 24 30 49 30 37 0 51 -14 60 -60 8 -39 -12 -60 -57 -60 -32 0 -75 -17 -101 -38 -24 -20 -24 -84 0 -105 26 -23 88 -22 119 3 32 25 39 25 46 -1 4 -16 12 -20 34 -17 19 2 27 8 24 18 -3 8 -8 66 -11 128 -5 93 -10 116 -26 132 -22 22 -74 31 -123 21z m99 -195 c0 -27 -7 -39 -29 -55 -38 -27 -77 -27 -91 0 -26 48 10 87 83 88 36 1 37 0 37 -33z" fill="#2b5a36"/>
<path d="M4841 1041 c-30 -8 -39 -29 -17 -37 14 -5 16 -32 16 -194 0 -115 -4 -191 -10 -195 -20 -12 -9 -23 28 -28 40 -5 73 5 53 17 -6 4 -11 35 -11 72 l0 64 45 0 c61 0 107 24 139 73 30 47 35 116 12 171 -24 57 -109 81 -153 44 -22 -18 -14 -27 20 -21 26 4 40 0 62 -19 53 -46 44 -177 -14 -208 -25 -13 -98 -13 -106 0 -10 17 -15 172 -5 190 6 11 5 28 -3 49 -12 32 -16 34 -56 22z" fill="#2b5a36"/>
<path d="M5220 1043 c-51 -8 -57 -13 -35 -29 18 -13 20 -26 20 -127 0 -62 -4 -120 -9 -129 -7 -16 -2 -18 43 -18 49 0 67 12 36 24 -12 4 -15 30 -15 146 0 77 -3 139 -7 139 -5 -1 -19 -4 -33 -6z" fill="#2b5a36"/>
<path d="M6685 1043 c-47 -10 -49 -12 -26 -36 20 -22 21 -33 21 -204 0 -150 -3 -183 -15 -193 -21 -17 -12 -24 38 -26 52 -3 63 3 43 24 -21 24 -30 86 -17 111 9 16 21 21 53 21 53 0 122 40 145 83 39 74 9 194 -54 218 -31 11 -88 2 -104 -17 -16 -20 -37 -17 -44 6 -3 11 -9 19 -13 19 -4 -1 -16 -3 -27 -6z m165 -43 c35 -19 52 -117 30 -174 -19 -50 -106 -78 -145 -46 -18 15 -21 160 -4 191 18 34 81 49 119 29z" fill="#2b5a36"/>
<path d="M7043 1042 c-24 -2 -43 -5 -43 -8 0 -2 9 -13 20 -24 17 -17 20 -33 20 -119 0 -84 3 -102 21 -125 27 -34 96 -37 125 -5 19 21 19 21 -16 14 -24 -4 -41 -1 -55 9 -18 13 -21 29 -25 138 l-5 123 -42 -3z" fill="#2b5a36"/>
<path d="M7425 1043 c-47 -10 -49 -12 -26 -36 19 -21 21 -35 21 -130 0 -60 -4 -109 -10 -112 -23 -14 -7 -25 40 -25 48 0 66 12 35 24 -23 9 -21 186 3 215 24 30 87 39 112 16 18 -16 20 -31 20 -122 0 -83 -3 -105 -15 -109 -32 -13 -13 -24 40 -24 58 0 66 5 39 25 -13 9 -16 29 -15 99 2 111 -11 159 -44 174 -36 17 -55 15 -98 -8 -20 -11 -41 -20 -46 -20 -5 0 -11 9 -14 20 -5 20 -7 21 -42 13z" fill="#2b5a36"/>
<path d="M8363 1042 c-47 -3 -53 -11 -23 -30 18 -11 20 -23 20 -120 0 -95 2 -111 20 -130 30 -31 93 -30 136 3 18 14 35 25 38 25 3 0 6 -11 6 -25 0 -22 4 -25 34 -25 19 0 38 5 41 10 3 6 2 10 -3 10 -19 0 -24 37 -23 158 l2 122 -45 0 c-50 0 -57 -8 -26 -28 18 -11 20 -23 20 -101 0 -97 -5 -108 -60 -131 -44 -18 -76 -2 -84 44 -4 20 -6 77 -5 127 1 49 0 91 -2 92 -2 1 -23 1 -46 -1z" fill="#2b5a36"/>
<path d="M8728 1043 c-33 -5 -36 -23 -8 -41 18 -11 20 -23 20 -116 0 -80 -4 -108 -15 -120 -24 -23 -19 -26 48 -26 61 0 62 1 40 18 -21 15 -23 26 -24 113 -2 115 8 139 56 139 18 0 37 -4 40 -10 12 -20 36 -11 33 12 -5 34 -46 45 -92 23 -36 -17 -39 -17 -48 -2 -5 9 -12 16 -16 16 -4 -1 -19 -4 -34 -6z" fill="#2b5a36"/>
<path d="M9595 1043 c-47 -10 -49 -12 -26 -36 19 -21 21 -35 21 -130 0 -60 -4 -109 -10 -112 -23 -14 -7 -25 40 -25 48 0 66 12 35 24 -12 4 -15 25 -15 95 0 106 3 117 41 136 40 21 75 19 93 -7 22 -32 23 -216 1 -224 -27 -11 -5 -24 41 -24 41 0 57 11 34 25 -6 4 -10 55 -10 118 0 95 -3 116 -20 137 -25 34 -91 35 -137 2 -38 -27 -41 -27 -45 0 -3 23 -12 28 -43 21z" fill="#2b5a36"/>
<path d="M10390 1043 c-32 -6 -70 -41 -70 -65 0 -28 26 -22 50 12 16 23 29 30 54 30 43 0 56 -16 56 -66 l0 -43 -47 -7 c-85 -12 -132 -46 -133 -95 0 -62 87 -93 143 -49 14 11 30 20 35 20 5 0 12 -9 15 -20 4 -15 14 -20 36 -20 31 0 39 8 22 25 -5 6 -12 55 -15 110 -4 55 -11 112 -17 127 -16 38 -61 53 -129 41z m92 -203 c-3 -41 -32 -70 -71 -70 -56 0 -76 46 -37 85 21 21 34 26 69 23 41 -3 42 -4 39 -38z" fill="#2b5a36"/>
<path d="M6270 1034 c0 -4 8 -13 18 -20 14 -10 18 -31 20 -106 3 -111 7 -132 28 -152 23 -24 96 -21 119 4 10 11 24 20 31 20 7 0 18 -9 24 -20 7 -13 21 -20 39 -20 36 0 45 10 23 26 -15 11 -17 31 -17 143 l0 131 -47 0 c-27 0 -48 -4 -48 -10 0 -5 7 -10 15 -10 24 0 35 -35 35 -109 0 -85 -13 -117 -53 -131 -42 -14 -54 -13 -77 10 -18 18 -20 33 -20 135 l0 115 -45 0 c-25 0 -45 -3 -45 -6z" fill="#2b5a36"/>
<path d="M7200 1032 c0 -4 9 -13 20 -20 17 -11 20 -23 20 -98 0 -47 -5 -94 -10 -104 -7 -13 -7 -21 0 -25 5 -3 10 -15 10 -26 0 -17 6 -20 33 -17 23 2 31 7 27 18 -3 8 -6 75 -8 148 l-3 132 -45 0 c-24 0 -44 -3 -44 -8z" fill="#2b5a36"/>
</g>
</svg>