<svg width="696" height="262" viewBox="0 0 696 262" fill="none" xmlns="http://www.w3.org/2000/svg">
<g id="welcome-to-the-google-workspace-learning-center-banner" clip-path="url(#clip0_132_34208)">
<g id="window">
<path id="right cloud" d="M459.87 79.2399C463.79 82.2399 466.13 87.9099 468.01 92.2999C470.79 98.8299 473.33 105.47 475.5 112.24H308.47C308.168 112.258 307.871 112.162 307.637 111.971C307.403 111.78 307.25 111.507 307.208 111.208C307.166 110.908 307.239 110.604 307.412 110.356C307.585 110.108 307.845 109.935 308.14 109.87C325.04 105.56 339.47 94.0899 357 92.8699C366.37 92.2199 375.48 95.0899 384.76 95.7899C393.76 96.4699 401.24 94.0399 408.76 89.2399C422.43 80.5099 438.21 70.1199 455.22 76.6799C456.891 77.2931 458.458 78.1563 459.87 79.2399Z" fill="#FCE8E6"/>
<path id="left cloud" d="M149.32 18.9901C167.51 11.9901 184.38 23.0901 199 32.4201C207.05 37.5501 215.09 40.1501 224.67 39.4201C234.6 38.6701 244.33 35.6001 254.35 36.2901C273.1 37.6101 288.53 49.8801 306.6 54.4801C306.763 54.5272 306.915 54.606 307.047 54.712C307.18 54.8179 307.29 54.949 307.372 55.0976C307.454 55.2462 307.505 55.4095 307.524 55.5781C307.542 55.7466 307.527 55.9172 307.48 56.0801C307.404 56.3477 307.243 56.5833 307.021 56.7511C306.799 56.9189 306.528 57.0098 306.25 57.0101H127.63C129.94 49.7801 132.63 42.6801 135.63 35.7001C137.63 31.0001 140.14 24.9601 144.33 21.7001C145.851 20.5559 147.532 19.6427 149.32 18.9901Z" fill="#FCE8E6"/>
<path id="sun" d="M543.92 77.6001C558.208 77.6001 569.79 66.0177 569.79 51.7301C569.79 37.4425 558.208 25.8601 543.92 25.8601C529.632 25.8601 518.05 37.4425 518.05 51.7301C518.05 66.0177 529.632 77.6001 543.92 77.6001Z" fill="#FDE293"/>
<g id="skyline">
<path id="Vector" d="M618.58 191.32H591.98V238.51H618.58V191.32Z" fill="#D2E3FC"/>
<g id="Clip path group">
<mask id="mask0_132_34208" style="mask-type:luminance" maskUnits="userSpaceOnUse" x="614" y="86" width="61" height="174">
<g id="clip-path">
<path id="Vector_2" d="M674.05 86.52H614.98V259.84H674.05V86.52Z" fill="white"/>
</g>
</mask>
<g mask="url(#mask0_132_34208)">
<g id="Group">
<path id="Vector_3" d="M678.52 96.21H613.39V283.17H678.52V96.21Z" fill="#D2E3FC"/>
</g>
</g>
</g>
<g id="Clip path group_2">
<mask id="mask1_132_34208" style="mask-type:luminance" maskUnits="userSpaceOnUse" x="645" y="139" width="50" height="121">
<g id="clip-path-2">
<path id="Vector_4" d="M694.72 139H645.7V259.83H694.72V139Z" fill="white"/>
</g>
</mask>
<g mask="url(#mask1_132_34208)">
<g id="Group_2">
<path id="Vector_5" d="M693.89 135.27H643.19V263.56H693.89V135.27Z" fill="#E8F0FE"/>
</g>
</g>
</g>
<path id="Vector_6" d="M539.56 41.3799H473.61V256.72H539.56V41.3799Z" fill="#D2E3FC"/>
<g id="Clip path group_3">
<mask id="mask2_132_34208" style="mask-type:luminance" maskUnits="userSpaceOnUse" x="473" y="41" width="67" height="216">
<g id="clip-path-3">
<path id="Vector_7" d="M539.56 41.3799H473.61V256.72H539.56V41.3799Z" fill="white"/>
</g>
</mask>
<g mask="url(#mask2_132_34208)">
<g id="Group_3">
<path id="Vector_8" d="M542.33 37.1199H470.84V260.98H542.33V37.1199Z" fill="#D2E3FC"/>
</g>
</g>
</g>
<g id="Clip path group_4">
<mask id="mask3_132_34208" style="mask-type:luminance" maskUnits="userSpaceOnUse" x="222" y="66" width="72" height="182">
<g id="clip-path-4">
<path id="Vector_9" d="M293.74 66.0898H222.12V247.71H293.74V66.0898Z" fill="white"/>
</g>
</mask>
<g mask="url(#mask3_132_34208)">
<g id="Group_4">
<path id="Vector_10" d="M297.22 62.2598H218.65V251.54H297.22V62.2598Z" fill="#D2E3FC"/>
</g>
</g>
</g>
<g id="Clip path group_5">
<mask id="mask4_132_34208" style="mask-type:luminance" maskUnits="userSpaceOnUse" x="259" y="175" width="177" height="66">
<g id="clip-path-5">
<path id="Vector_11" d="M435.86 175.3H259.06V240.09H435.86V175.3Z" fill="white"/>
</g>
</mask>
<g mask="url(#mask4_132_34208)">
<g id="Group_5">
<path id="Vector_12" d="M447.34 173.08H247.58V242.3H447.34V173.08Z" fill="#E8F0FE"/>
</g>
</g>
</g>
<path id="Vector_13" d="M156.58 79.0999H102.98V233.74H156.58V79.0999Z" fill="#D2E3FC"/>
<g id="Clip path group_6">
<mask id="mask5_132_34208" style="mask-type:luminance" maskUnits="userSpaceOnUse" x="102" y="79" width="55" height="155">
<g id="clip-path-6">
<path id="Vector_14" d="M156.58 79.0999H102.98V233.74H156.58V79.0999Z" fill="white"/>
</g>
</mask>
<g mask="url(#mask5_132_34208)">
<g id="Group_6">
<path id="Vector_15" d="M159.19 74.3298H100.38V238.51H159.19V74.3298Z" fill="#D2E3FC"/>
</g>
</g>
</g>
<g id="Clip path group_7">
<mask id="mask6_132_34208" style="mask-type:luminance" maskUnits="userSpaceOnUse" x="327" y="215" width="230" height="46">
<g id="clip-path-7">
<path id="Vector_16" d="M556.9 215.87H327.49V260.76H556.9V215.87Z" fill="white"/>
</g>
</mask>
<g mask="url(#mask6_132_34208)">
<g id="Group_7">
<path id="Vector_17" d="M563.49 213.58H320.9V263.05H563.49V213.58Z" fill="#E8F0FE"/>
</g>
</g>
</g>
<path id="Vector_18" d="M205.45 31.4199H152.64V250.05H205.45V31.4199Z" fill="#E8F0FE"/>
<g id="Clip path group_8">
<mask id="mask7_132_34208" style="mask-type:luminance" maskUnits="userSpaceOnUse" x="152" y="31" width="54" height="220">
<g id="clip-path-8">
<path id="Vector_19" d="M205.45 31.4199H152.64V250.05H205.45V31.4199Z" fill="white"/>
</g>
</mask>
<g mask="url(#mask7_132_34208)">
<g id="Group_8">
<path id="Vector_20" d="M208.02 26.7998H150.08V254.65H208.02V26.7998Z" fill="#E8F0FE"/>
</g>
</g>
</g>
<g id="Clip path group_9">
<mask id="mask8_132_34208" style="mask-type:luminance" maskUnits="userSpaceOnUse" x="539" y="119" width="55" height="140">
<g id="clip-path-9">
<path id="Vector_21" d="M593.27 119.29H539.56V258.49H593.27V119.29Z" fill="white"/>
</g>
</mask>
<g mask="url(#mask8_132_34208)">
<g id="Group_9">
<path id="Vector_22" d="M596.02 113.81H536.81V263.97H596.02V113.81Z" fill="#E8F0FE"/>
</g>
</g>
</g>
<g id="Clip path group_10">
<mask id="mask9_132_34208" style="mask-type:luminance" maskUnits="userSpaceOnUse" x="358" y="76" width="54" height="183">
<g id="clip-path-10">
<path id="Vector_23" d="M411.01 76.8699H358.76V258.5H411.01V76.8699Z" fill="white"/>
</g>
</mask>
<g mask="url(#mask9_132_34208)">
<g id="Group_10">
<path id="Vector_24" d="M413.54 73.0298H356.22V262.32H413.54V73.0298Z" fill="#E8F0FE"/>
</g>
</g>
</g>
<path id="Vector_25" d="M384.88 24.2L358.76 77.43H411.01L384.88 24.2Z" fill="#E8F0FE"/>
<path id="Vector_26" d="M486.54 86.52H451.4V256.72H486.54V86.52Z" fill="#E8F0FE"/>
<path id="Vector_27" d="M488.01 83.1499H449.92V260.08H488.01V83.1499Z" fill="#E8F0FE"/>
<path id="Vector_28" d="M124.27 147.41H3.03V260.48H124.27V147.41Z" fill="#D2E3FC"/>
<path id="Vector_29" d="M72.33 100.23H20.05V259.81H72.33V100.23Z" fill="#E8F0FE"/>
<path id="Vector_30" d="M213.05 182.67H78.34V260.8H213.05V182.67Z" fill="#E8F0FE"/>
<path id="Vector_31" d="M693.89 224.46H3.03V261.15H693.89V224.46Z" fill="#E8F0FE"/>
</g>
<path id="Vector_32" d="M525.04 2.5V260.54" stroke="#3C4043" stroke-miterlimit="10"/>
<path id="Vector_33" d="M524.04 2.5V260.54" stroke="white" stroke-miterlimit="10"/>
<path id="Vector_34" d="M173.25 2.5V260.54" stroke="#3C4043" stroke-miterlimit="10"/>
<path id="Vector_35" d="M172.25 2.5V260.54" stroke="white" stroke-miterlimit="10"/>
<path id="Vector_36" d="M349.14 2.5V260.54" stroke="#3C4043" stroke-miterlimit="10"/>
<path id="Vector_37" d="M348.14 2.5V260.54" stroke="white" stroke-miterlimit="10"/>
<path id="border light" d="M695 1H1V261.5H695V1Z" stroke="white" stroke-miterlimit="10"/>
<path id="border dark" d="M693.89 2.5H2V260.54H693.89V2.5Z" stroke="#3C4043" stroke-miterlimit="10"/>
</g>
<g id="seated man">
<g id="man on right">
<path id="Vector_38" d="M622.98 190.26L650.15 260.7" stroke="#3C4043" stroke-linecap="round" stroke-linejoin="round"/>
<path id="Vector_39" d="M582.58 190.26L555.41 260.7" stroke="#3C4043" stroke-linecap="round" stroke-linejoin="round"/>
<path id="Vector_40" d="M581.26 189.08H637.68L649.62 132.85C650.13 130.443 649.663 127.933 648.322 125.87C646.981 123.807 644.876 122.361 642.47 121.85C641.839 121.718 641.195 121.651 640.55 121.65H603.08C600.96 121.655 598.906 122.385 597.258 123.718C595.61 125.051 594.467 126.908 594.02 128.98L581.26 189.08Z" fill="#3C4043" stroke="#3C4043" stroke-linecap="round" stroke-linejoin="round"/>
<path id="Vector_41" d="M570.24 207.2C568.53 205.12 560.67 205.42 560.67 205.42L582.97 244.99L590.66 239.48C590.47 239.62 577.72 216.35 570.24 207.2Z" fill="#933222" stroke="#933222" stroke-linecap="round" stroke-linejoin="round"/>
<path id="Vector_42" d="M540.14 222.26L529.14 220.71L515.47 244.19H525.47L540.14 222.26Z" fill="#933222" stroke="#933222" stroke-linecap="round" stroke-linejoin="round"/>
<path id="Vector_43" d="M608.62 168.31L612.34 164.7C612.34 164.7 623.04 183.25 610.08 189.37C597.12 195.49 572.26 191.31 572.26 191.31L590.65 229.14L575.07 232.88C575.07 232.88 540.85 182.18 549.68 173.19C556.98 165.76 579.18 171.92 579.18 171.92L608.62 168.31Z" fill="#34A453" stroke="#34A453" stroke-linecap="round" stroke-linejoin="round"/>
<path id="Vector_44" d="M617.1 158.93L622.75 163.8C622.75 163.8 632.39 183.05 619.35 188.99C610.95 192.82 570.35 191.27 570.35 191.27L539.26 236.56L520.09 234.19C520.09 234.19 547.09 186.34 552.09 176.99C555.42 170.82 586.18 169.61 586.18 169.61L591.86 156.49L617.1 158.93Z" fill="#34A453" stroke="#34A453" stroke-linecap="round" stroke-linejoin="round"/>
<path id="Vector_45" d="M591.1 229.44L586.18 231.99L585.29 230.21L591.1 229.44Z" fill="#3C4043"/>
<path id="Vector_46" d="M525.47 243.5C520.47 243.72 515.69 244.05 515.69 244.05C511.79 247.7 500.4 253.05 495.69 253.97C490.98 254.89 490.76 258.22 491.07 260.26C498.52 260.26 518.97 260.39 518.97 260.39C518.97 260.39 522.51 260.57 525.24 260.45C527.97 260.33 527.91 258.15 527.8 255.31C527.69 252.65 526.66 248.6 526.42 244.31C526.414 244.196 526.385 244.085 526.335 243.982C526.285 243.88 526.215 243.788 526.13 243.713C526.044 243.637 525.944 243.58 525.836 243.543C525.728 243.507 525.614 243.492 525.5 243.5H525.47Z" fill="white" stroke="#3C4043" stroke-linecap="round" stroke-linejoin="round"/>
<path id="Vector_47" d="M491.06 257.31L527.51 256.88" stroke="#3C4043" stroke-linecap="round" stroke-linejoin="round"/>
<path id="Vector_48" d="M589.98 238.5L582.35 243.9C584.58 250.22 583.24 252.69 573.72 255.39C569.06 256.72 568.72 258.39 569.06 260.46H582.06C583.189 260.47 584.293 260.119 585.21 259.46L601.43 250.36L600.09 247.82C598.8 245.68 592.49 240.62 590.68 238.57C590.59 238.478 590.47 238.421 590.343 238.408C590.215 238.396 590.086 238.428 589.98 238.5Z" fill="white" stroke="#3C4043" stroke-linecap="round" stroke-linejoin="round"/>
<path id="Vector_49" d="M569.66 257.5H580.96C582.032 257.499 583.079 257.171 583.96 256.56L600.03 247.88" fill="white"/>
<path id="Vector_50" d="M569.66 257.5H580.96C582.032 257.499 583.079 257.171 583.96 256.56L600.03 247.88" stroke="#3C4043" stroke-linecap="round" stroke-linejoin="round"/>
<path id="Vector_51" d="M575.66 170.39C575.66 170.39 555.02 171.01 548.94 182.87" stroke="#3C4043" stroke-linecap="round" stroke-linejoin="round"/>
<path id="Vector_52" d="M575.07 232.86L590.65 229.14L572.47 191.69" stroke="#3C4043" stroke-linecap="round" stroke-linejoin="round"/>
<path id="Vector_53" d="M622.75 163.8C622.75 163.8 632.12 183.42 619.08 189.36C610.68 193.19 570.08 191.64 570.08 191.64L538.99 236.93L520.09 234.19" stroke="#3C4043" stroke-linecap="round" stroke-linejoin="round"/>
<path id="Vector_54" d="M570.68 192.04L637.68 191.82L638.3 188.48H569.12L570.68 192.04Z" fill="#3C4043"/>
<path id="Vector_55" d="M569.65 148.85C567.13 148.85 561.87 147.08 558.65 148.54C555.2 150.1 553.32 154.21 553.32 154.21L574.32 154.13L602.55 154.21L610.01 142.7L605.86 143.31C605.86 143.31 590.64 145.38 588.92 145.65C583.47 146.52 572.8 148.85 569.65 148.85Z" fill="#933222" stroke="#933222" stroke-linecap="round" stroke-linejoin="round"/>
<path id="Vector_56" d="M593.7 111.53C599.27 107.2 607.21 106.53 611.41 108.93C615.61 111.33 617.29 113.93 618.93 119.93C620.57 125.93 626.59 171.41 626.03 176.64C613.16 176.64 586.25 169.64 586.25 169.64C586.25 169.64 588.79 149.2 584.02 137.13C584.02 137.1 588.92 115.23 593.7 111.53Z" fill="white" stroke="#3C4043" stroke-linecap="round" stroke-linejoin="round"/>
<path id="Vector_57" d="M604.37 129.25C604.37 129.25 595.87 152.75 590 155.25C584.13 157.75 579.64 155.25 574.54 149.46C571.54 146.03 566.11 137.3 562.7 134.88C562.639 134.852 562.584 134.811 562.54 134.76C561.81 133.99 563.69 131.07 566.54 128.42C569.39 125.77 572.27 124.17 572.99 124.94C572.99 124.94 585.06 137.81 586.43 139.01" fill="white"/>
<path id="Vector_58" d="M604.37 129.25C604.37 129.25 595.87 152.75 590 155.25C584.13 157.75 579.64 155.25 574.54 149.46C571.54 146.03 566.11 137.3 562.7 134.88C562.639 134.852 562.584 134.811 562.54 134.76C561.81 133.99 563.69 131.07 566.54 128.42C569.39 125.77 572.27 124.17 572.99 124.94C572.99 124.94 585.06 137.81 586.43 139.01" stroke="#3C4043" stroke-linecap="round" stroke-linejoin="round"/>
<path id="Vector_59" d="M566.57 128.29C563.57 130.93 561.76 133.88 562.39 134.59C563.02 135.3 565.83 133.5 568.86 130.87C571.89 128.24 573.54 125.52 572.92 124.81C572.3 124.1 569.6 125.65 566.57 128.29Z" fill="#3C4043" stroke="#3C4043" stroke-linecap="round" stroke-linejoin="round"/>
<path id="Vector_60" d="M560.06 110.73C560.06 110.73 572.9 124.86 573.34 125.31C572.175 127.962 570.149 130.143 567.59 131.5C567.14 131.06 557.32 116.89 557.32 116.89C554.75 115.57 549.26 112.89 548.55 108.96C547.66 104.09 548.55 99.6601 550.32 100.1C551.21 100.32 549.88 102.29 551.65 105.38C552.75 107.31 555.65 107.63 554.75 106.3C553.85 104.97 552.98 103.2 554.75 103.2C556.16 103.2 558.88 108.22 560.06 110.73Z" fill="#933222" stroke="#933222"/>
<path id="Vector_61" d="M643.12 167.67H604.62C600.22 167.67 596.62 171.67 596.62 176.56V191.7" stroke="#3C4043" stroke-miterlimit="10"/>
<g id="Vector_62">
<path d="M591.78 97.6101C591.73 99.4081 591.78 101.208 591.93 103C592.07 103.75 592.27 104.53 593.03 104.81C594.51 105.21 596.07 105.21 597.55 104.81C598.06 104.72 598.55 104.6 599.07 104.46C599.431 107.054 600.02 109.61 600.83 112.1C602.363 112.167 603.885 111.803 605.222 111.048C606.558 110.293 607.656 109.178 608.39 107.83C606.89 103.25 606.21 103.16 608.39 96.6201C610.21 91.1201 607.9 87.5101 602.1 85.8801C597.84 84.6601 594.95 86.1701 593.82 88.8001C593.367 89.8336 592.992 90.9 592.7 91.9901" fill="#933222"/>
<path d="M591.78 97.6101C591.73 99.4081 591.78 101.208 591.93 103C592.07 103.75 592.27 104.53 593.03 104.81C594.51 105.21 596.07 105.21 597.55 104.81C598.06 104.72 598.55 104.6 599.07 104.46C599.431 107.054 600.02 109.61 600.83 112.1C602.363 112.167 603.885 111.803 605.222 111.048C606.558 110.293 607.656 109.178 608.39 107.83C606.89 103.25 606.21 103.16 608.39 96.6201C610.21 91.1201 607.9 87.5101 602.1 85.8801C597.84 84.6601 594.95 86.1701 593.82 88.8001C593.367 89.8336 592.992 90.9 592.7 91.9901" stroke="#933222" stroke-miterlimit="10"/>
</g>
<g id="Vector_63">
<path d="M592.71 91.8601C592.243 93.8356 591.909 95.8401 591.71 97.8601L592.71 91.8601Z" fill="#933222"/>
<path d="M592.71 91.8601C592.243 93.8356 591.909 95.8401 591.71 97.8601" stroke="#933222" stroke-miterlimit="10"/>
</g>
<path id="Vector_64" d="M599.3 106.07C599.3 106.07 601.57 105.42 602.3 101.95C601.488 103.108 600.334 103.982 599 104.45C599.002 104.696 599.028 104.94 599.08 105.18L599.3 106.07Z" fill="#3C4043" stroke="#3C4043" stroke-linecap="round" stroke-linejoin="round"/>
<path id="Vector_65" d="M607.1 100.99C606.39 100.005 605.802 98.9373 605.35 97.8101C605.16 97.1001 604.1 96.3901 603.52 96.1001C603.476 96.0754 603.428 96.0598 603.378 96.054C603.328 96.0482 603.277 96.0524 603.229 96.0663C603.18 96.0803 603.135 96.1037 603.096 96.1353C603.057 96.1668 603.024 96.2059 603 96.2501C602.563 96.8918 602.165 97.5597 601.81 98.2501C601.81 98.2501 601.81 94.9301 601.68 94.4801C601.55 94.0301 600.68 93.7101 600.5 92.1701C600.403 91.2702 600.377 90.3641 600.42 89.4601C599.671 89.4086 598.928 89.2915 598.2 89.1101C596.66 88.7301 594.39 88.2301 593.73 88.8701C593.519 88.2257 593.461 87.5409 593.56 86.8701C593.74 85.4901 595.87 82.9501 600.86 83.5801C605.85 84.2101 612.47 85.3301 610.47 94.2601C609.64 97.7601 608.2 97.2101 607.1 100.99Z" fill="#3C4043" stroke="#3C4043" stroke-linecap="round" stroke-linejoin="round"/>
<g id="Vector_66">
<path d="M603.2 96.0601C603.417 95.8965 603.667 95.7807 603.933 95.7204C604.198 95.66 604.473 95.6565 604.74 95.7101C604.93 95.7494 605.111 95.8259 605.272 95.9351C605.433 96.0443 605.571 96.1842 605.678 96.3468C605.784 96.5093 605.858 96.6913 605.895 96.8823C605.931 97.0733 605.929 97.2697 605.89 97.4601C605.697 97.9479 605.392 98.3833 605 98.7308C604.607 99.0783 604.138 99.3282 603.63 99.4601" fill="#933222"/>
<path d="M603.2 96.0601C603.417 95.8965 603.667 95.7807 603.933 95.7204C604.198 95.66 604.473 95.6565 604.74 95.7101C604.93 95.7494 605.111 95.8259 605.272 95.9351C605.433 96.0443 605.571 96.1842 605.678 96.3468C605.784 96.5093 605.858 96.6913 605.895 96.8823C605.931 97.0733 605.929 97.2697 605.89 97.4601C605.697 97.9479 605.392 98.3833 605 98.7308C604.607 99.0783 604.138 99.3282 603.63 99.4601" stroke="#933222" stroke-miterlimit="10"/>
</g>
<path id="Vector_67" d="M603.2 96.0601C603.417 95.8965 603.667 95.7807 603.933 95.7204C604.198 95.66 604.473 95.6565 604.74 95.7101C604.93 95.7494 605.111 95.8259 605.272 95.9351C605.433 96.0443 605.571 96.1842 605.678 96.3468C605.784 96.5093 605.858 96.6913 605.895 96.8823C605.931 97.0733 605.929 97.2697 605.89 97.4601C605.697 97.9479 605.392 98.3833 605 98.7308C604.607 99.0783 604.138 99.3282 603.63 99.4601" stroke="#3C4043" stroke-linecap="round" stroke-linejoin="round"/>
</g>
<g id="laptop">
<path id="Vector_68" d="M500.19 150.8H540.73L541.51 154.67H500.98L500.19 150.8Z" fill="white" stroke="#3C4043" stroke-linecap="round" stroke-linejoin="round"/>
<path id="Vector_69" d="M509.32 118.04H463.67L471.82 154.67H517.47L509.32 118.04Z" fill="white" stroke="#3C4043" stroke-linecap="round" stroke-linejoin="round"/>
</g>
</g>
<g id="standing woman">
<path id="Vector_70" d="M266.88 238.59C266.88 238.59 264.16 243.59 263.88 247.44C263.6 251.29 263.26 255.1 265.79 256.92C267.158 257.812 268.184 259.141 268.7 260.69H262.96C260.96 260.69 249.84 246.13 249.84 246.13L260.53 232.91L266.88 238.59Z" fill="white" stroke="#3C4043" stroke-linecap="round" stroke-linejoin="round"/>
<path id="Vector_71" d="M260.47 130.79L286.47 127.79C286.47 127.79 286.68 128.48 289.65 136.72C292.94 143.38 297.02 151.56 302.26 163.04C307.5 174.52 310.06 180.85 308.94 188.04C307.14 199.62 271.69 242.88 271.69 242.88L259.84 232.24L290.01 185.89L277.28 165.18" fill="#4285F4"/>
<path id="Vector_72" d="M260.47 130.79L286.47 127.79C286.47 127.79 286.68 128.48 289.65 136.72C292.94 143.38 297.02 151.56 302.26 163.04C307.5 174.52 310.06 180.85 308.94 188.04C307.14 199.62 271.69 242.88 271.69 242.88L259.84 232.24L290.01 185.89L277.28 165.18" stroke="#4285F4" stroke-miterlimit="10"/>
<path id="Vector_73" d="M263.55 226.3L259.78 232.22L271.63 242.86" stroke="#3C4043" stroke-linecap="round" stroke-linejoin="round"/>
<path id="Vector_74" d="M283.47 136.2L260.72 137.06C260.72 137.06 255.72 135.8 255.72 151.43C255.72 167.06 266.37 247.84 266.37 247.84H285.9C285.9 247.84 279.16 170.84 278.76 166.43C278.64 161.903 278.77 157.373 279.15 152.86" fill="#4285F4"/>
<path id="Vector_75" d="M283.47 136.2L260.72 137.06C260.72 137.06 255.72 135.8 255.72 151.43C255.72 167.06 266.37 247.84 266.37 247.84H285.9C285.9 247.84 279.16 170.84 278.76 166.43C278.64 161.903 278.77 157.373 279.15 152.86" stroke="#3C4043" stroke-linecap="round" stroke-linejoin="round"/>
<path id="Vector_76" d="M277.96 247.84C280.081 251.288 283.322 253.904 287.14 255.25C292.41 257.08 294.03 258.82 294.7 260.25C294.718 260.291 294.729 260.335 294.73 260.379C294.731 260.424 294.724 260.469 294.708 260.51C294.692 260.552 294.669 260.59 294.638 260.623C294.607 260.655 294.571 260.682 294.53 260.7C294.484 260.71 294.436 260.71 294.39 260.7H270.78L269.39 247.84H277.96Z" fill="white" stroke="#3C4043" stroke-linecap="round" stroke-linejoin="round"/>
<path id="Vector_77" d="M289.72 137.12C289.72 137.12 290.41 138.97 291.08 140.56C291.75 142.15 292.54 143.95 292.54 143.95L260.47 138.68L289.72 137.12Z" fill="#3C4043" stroke="#3C4043" stroke-linecap="round" stroke-linejoin="round"/>
<g id="top">
<g id="neck">
<path d="M278.1 88.5199C275.48 86.2899 276.65 80.3199 276.65 80.3199L270.97 76.8899C269.85 81.0199 268.16 88.3399 265.53 88.7099" fill="white"/>
<path d="M278.1 88.5199C275.48 86.2899 276.65 80.3199 276.65 80.3199L270.97 76.8899C269.85 81.0199 268.16 88.3399 265.53 88.7099" stroke="#3C4043" stroke-miterlimit="10"/>
</g>
<g id="shirt">
<path d="M276.79 140.88H255.79L259.05 107.64L249.95 104.87C250.86 90.99 258.4 87.99 266.66 87.99C267.03 90.62 276.98 93.55 278.1 88.44C288.41 87.77 293.64 104.9 293.64 104.9V140.55" fill="white"/>
<path d="M276.79 140.88H255.79L259.05 107.64L249.95 104.87C250.86 90.99 258.4 87.99 266.66 87.99C267.03 90.62 276.98 93.55 278.1 88.44C288.41 87.77 293.64 104.9 293.64 104.9V140.55" stroke="#3C4043" stroke-miterlimit="10"/>
</g>
<path id="Vector_78" d="M294.33 140.84H274.52" stroke="#3C4043" stroke-miterlimit="10"/>
<g id="arm">
<path d="M250.15 102.6C248.85 108.945 248.18 115.403 248.15 121.88C248.15 124.35 248.15 126.88 248.25 129.3C248.36 131.98 248.14 134.96 250.25 136.93C252.36 138.9 255.41 137.76 257.67 136.46C261.276 134.277 264.644 131.723 267.72 128.84C270.37 126.46 273.57 123.71 274.88 120.32C275.782 120.808 276.834 120.943 277.83 120.7C279.21 120.31 280.15 119.76 281.61 119.96C282.87 120.13 284.01 120.49 284.77 119.16C282.524 117.229 279.798 115.941 276.88 115.43C275.12 115.24 272.98 117 271.49 117.86C269.49 119.02 267.49 120.19 265.49 121.37L257.67 125.99L259.19 105.99" fill="#DD8861"/>
<path d="M250.15 102.6C248.85 108.945 248.18 115.403 248.15 121.88C248.15 124.35 248.15 126.88 248.25 129.3C248.36 131.98 248.14 134.96 250.25 136.93C252.36 138.9 255.41 137.76 257.67 136.46C261.276 134.277 264.644 131.723 267.72 128.84C270.37 126.46 273.57 123.71 274.88 120.32C275.782 120.808 276.834 120.943 277.83 120.7C279.21 120.31 280.15 119.76 281.61 119.96C282.87 120.13 284.01 120.49 284.77 119.16C282.524 117.229 279.798 115.941 276.88 115.43C275.12 115.24 272.98 117 271.49 117.86C269.49 119.02 267.49 120.19 265.49 121.37L257.67 125.99L259.19 105.99" stroke="#DD8861"/>
</g>
<path id="Vector_79" d="M259.15 105.98L250.15 102.6" stroke="#3C4043" stroke-miterlimit="10"/>
<g id="head">
<path id="Vector_80" d="M272.8 82.6199C270.16 70.3899 278.7 66.7499 281.1 66.4399C283.5 66.1299 285.96 68.7399 286.77 70.0899C287.58 71.4399 286.64 78.6299 286.64 78.6299C286.57 87.4799 288.5 85.9599 289.21 99.5299C289.313 102.768 288.867 106.001 287.89 109.09C286.579 107.434 285.424 105.659 284.44 103.79C283.646 101.523 283.103 99.1753 282.82 96.7899C282.542 97.9152 282.408 99.071 282.42 100.23C282.448 101.691 282.582 103.148 282.82 104.59C282.82 104.59 281.24 103.2 280.16 102.02C278.357 99.7027 277.222 96.936 276.88 94.0199C276.48 90.4399 275.53 89.0899 275.53 89.0899C274.367 87.0488 273.451 84.8769 272.8 82.6199Z" fill="#88380E" stroke="#3C4043" stroke-linecap="round" stroke-linejoin="round"/>
<path id="Vector_81" d="M267.93 87.3501C269.93 83.2301 270.53 82.1401 269.32 75.7601C268.27 70.3901 270.87 67.2901 276.51 66.4401C280.66 65.8001 283.19 67.5601 283.94 70.1601C284.648 72.9378 284.922 75.8086 284.75 78.6701C284.631 80.371 284.019 82.0005 282.99 83.3601C282.37 84.1701 281.35 85.6001 280.19 85.4801C279.079 85.2627 278.022 84.8277 277.08 84.2001C276.439 86.6058 275.583 88.9487 274.52 91.2001C269.32 90.7201 267.97 87.3501 267.93 87.3501Z" fill="#DD8861" stroke="#DD8861"/>
<path id="Vector_82" d="M273.27 79.17C272.844 78.9358 272.477 78.608 272.197 78.2113C271.916 77.8146 271.729 77.3594 271.65 76.88C271.597 76.5233 271.682 76.1597 271.888 75.8639C272.095 75.5681 272.407 75.3628 272.76 75.29C272.992 75.2774 273.223 75.3198 273.435 75.4136C273.647 75.5075 273.834 75.6502 273.98 75.83" stroke="#3C4043" stroke-linecap="round" stroke-linejoin="round"/>
<path id="Vector_83" d="M276.61 86.2101C276.68 85.9101 276.78 85.5401 276.78 85.5401C275.583 84.9424 274.603 83.984 273.98 82.8C274.28 86.15 276.34 87.0301 276.34 87.0301C276.34 87.0301 276.47 86.5901 276.61 86.2101Z" fill="#3C4043" stroke="#3C4043" stroke-linecap="round" stroke-linejoin="round"/>
<path id="Vector_84" d="M285.76 66.11C284.538 65.0319 283.111 64.2107 281.565 63.6953C280.019 63.1799 278.385 62.9808 276.76 63.11C275.643 63.0798 274.536 63.3271 273.537 63.8297C272.539 64.3323 271.681 65.0745 271.04 65.99C269.92 65.79 267.93 67.82 267.04 70.38C266.039 72.7628 265.651 75.3584 265.91 77.93C265.905 79.1109 266.173 80.277 266.693 81.337C267.213 82.3971 267.972 83.3222 268.91 84.04L271.91 77.93C271.741 77.6212 271.639 77.2806 271.61 76.93C271.561 76.574 271.649 76.2127 271.854 75.9181C272.06 75.6235 272.369 75.4171 272.72 75.34C273.066 75.3449 273.407 75.4233 273.72 75.57C274.6 75.34 277.09 71.8 276.18 69.1C277.4 69.26 278.95 69.6 280.44 68.59C281.93 67.58 287.73 68.15 286.82 79.53C286.642 80.8949 286.08 82.1813 285.2 83.24C285.2 83.24 286.62 79.77 287.06 78.58C287.822 76.8903 288.299 75.0857 288.47 73.24C288.634 71.9206 288.473 70.5812 288.001 69.3384C287.528 68.0956 286.759 66.9873 285.76 66.11Z" fill="#88380E" stroke="#88380E" stroke-linecap="round" stroke-linejoin="round"/>
<path id="Vector_85" d="M286.64 75.6C286.3 69.35 281.8 67.76 280.56 68.6C279.08 69.6 277.56 69.27 276.31 69.11C277.22 71.81 274.69 75.35 273.81 75.59C273.501 75.4311 273.158 75.3488 272.81 75.35C272.445 75.4229 272.124 75.6348 271.913 75.941C271.702 76.2471 271.618 76.6234 271.68 76.99C271.713 77.3413 271.818 77.6818 271.99 77.99L268.91 84.1C267.972 83.3822 267.213 82.4571 266.693 81.3971C266.173 80.3371 265.905 79.1709 265.91 77.99C265.653 75.4004 266.048 72.7876 267.06 70.39C267.97 67.83 269.96 65.8 271.06 66C271.703 65.0947 272.56 64.3625 273.554 63.8687C274.549 63.375 275.65 63.1349 276.76 63.17C278.385 63.0409 280.019 63.2399 281.565 63.7553C283.111 64.2707 284.538 65.0919 285.76 66.17C286.76 67.0468 287.529 68.155 288.002 69.398C288.474 70.6409 288.635 71.9806 288.47 73.3C288.08 76.1017 287.271 78.8287 286.07 81.39" stroke="#3C4043" stroke-linecap="round" stroke-linejoin="round"/>
<path id="Vector_86" d="M272.12 66.99C273.12 67.4 275.33 68.63 276.34 69.19" stroke="#3C4043" stroke-linecap="round" stroke-linejoin="round"/>
</g>
<path id="pad" d="M319.76 105.04H291.21L275.84 129.34L304.35 129.68L319.76 105.04Z" fill="white" stroke="#3C4043" stroke-miterlimit="10"/>
<g id="hand">
<path d="M307.47 127.26C306.017 125.309 304.871 123.147 304.07 120.85C303.69 119.63 302.24 114.65 304.6 114.57C305.074 114.593 305.531 114.749 305.92 115.02C308.6 116.66 309.54 118.76 310.34 121.58L307.57 127.19" fill="#DD8861"/>
<path d="M307.47 127.26C306.017 125.309 304.871 123.147 304.07 120.85C303.69 119.63 302.24 114.65 304.6 114.57C305.074 114.593 305.531 114.749 305.92 115.02C308.6 116.66 309.54 118.76 310.34 121.58L307.57 127.19" stroke="#DD8861"/>
</g>
</g>
</g>
<g id="seated woman">
<g id="chair">
<path id="Vector_87" d="M71.47 189.37L44.31 259.81" stroke="#3C4043" stroke-linecap="round" stroke-linejoin="round"/>
<path id="Vector_88" d="M111.88 189.37L139.05 259.81" stroke="#3C4043" stroke-linecap="round" stroke-linejoin="round"/>
<path id="Vector_89" d="M113.21 188.2H56.79L44.85 131.99C44.5961 130.799 44.5795 129.569 44.8009 128.372C45.0224 127.174 45.4777 126.032 46.1408 125.011C46.8038 123.989 47.6617 123.108 48.6653 122.418C49.669 121.728 50.7987 121.243 51.99 120.99C52.6249 120.858 53.2716 120.791 53.92 120.79H91.38C93.5013 120.785 95.5604 121.506 97.2144 122.834C98.8684 124.163 100.017 126.018 100.47 128.09L113.21 188.2Z" fill="#3C4043" stroke="#3C4043" stroke-linecap="round" stroke-linejoin="round"/>
</g>
<path id="Vector_90" d="M69.01 159.88C66.64 167.32 54.87 186.71 78.42 187.67C92.88 187.98 116.26 187.29 116.26 187.29C117.37 187.86 117.88 191.7 118.4 191.5C118.92 191.3 129.32 172.97 131.21 171.5C120.98 165.92 97.01 159.93 97.01 159.93L69.01 159.88Z" fill="#EA4335" stroke="#EA4335" stroke-miterlimit="10"/>
<path id="Vector_91" d="M123.8 191.15L57.13 190.99L56.47 188.29H125.31L123.8 191.15Z" fill="#3C4043" stroke="#3C4043" stroke-miterlimit="10"/>
<path id="Vector_92" d="M129.69 174.06C130.706 183.888 130.864 193.785 130.16 203.64C129.27 217.49 128.35 231.36 126.89 245.16C126.76 245.82 126.76 246.5 126.89 247.16C127.56 249.34 130.56 250.5 132.27 251.68C133.6 252.58 134.93 253.47 136.27 254.31C136.27 254.31 123.15 263.75 120.98 250.56C111.98 195.46 119.19 191.86 119.19 191.86C125.6 180.29 129.69 174.06 129.69 174.06Z" fill="#FBA089" stroke="#FBA089" stroke-linecap="round" stroke-linejoin="round"/>
<path id="Vector_93" d="M130.97 174.31C137.86 192.91 153.97 244.57 158.52 248.31C163.07 252.05 166.24 254.72 166.24 254.72C162.24 258 159.07 256.12 152.74 250.65C146.4 242.21 130.01 211.74 130.01 211.74L130.97 174.31Z" fill="#FBA089" stroke="#FBA089" stroke-linecap="round" stroke-linejoin="round"/>
<path id="Vector_94" d="M129.69 174.06C130.706 183.888 130.864 193.785 130.16 203.64C129.27 217.49 128.35 231.36 126.89 245.16C126.76 245.82 126.76 246.5 126.89 247.16" stroke="#3C4043" stroke-linecap="round" stroke-linejoin="round"/>
<path id="Vector_95" d="M167.19 254.13C167.446 254.1 167.704 254.1 167.96 254.13C169.368 254.318 170.752 254.653 172.09 255.13C173.035 255.367 173.89 255.874 174.55 256.59C174.873 256.953 175.088 257.399 175.173 257.877C175.258 258.356 175.208 258.848 175.03 259.3C173.97 261.51 169.2 260.71 167.32 260.65C163.23 260.53 159.14 260.45 155.06 260.34C154.464 260.379 153.867 260.272 153.32 260.03C152.858 259.753 152.484 259.351 152.24 258.87C150.85 256.41 151.44 252.95 152.39 250.42C152.02 251.42 158.39 254.69 159.12 254.91C160.997 255.46 162.993 255.46 164.87 254.91C165.622 254.591 166.398 254.33 167.19 254.13Z" fill="white" stroke="#3C4043" stroke-miterlimit="10"/>
<path id="Vector_96" d="M136.31 253.8H136.52C137.66 253.73 138.75 254.4 139.84 254.61C140.862 254.75 141.851 255.072 142.76 255.56C143.209 255.813 143.592 256.168 143.877 256.598C144.162 257.027 144.341 257.518 144.4 258.03C144.53 260.88 139 260.51 137.3 260.46C132.85 260.34 128.42 260.21 123.97 260.17C123.431 260.193 122.891 260.157 122.36 260.06C121.843 259.918 121.381 259.625 121.03 259.22C119.21 256.8 119.03 252.83 120.03 250.22C119.63 251.29 126.13 253.76 126.93 254.13C129.085 255.122 131.519 255.327 133.81 254.71C134.622 254.352 135.458 254.048 136.31 253.8Z" fill="white" stroke="#3C4043" stroke-miterlimit="10"/>
<path id="Vector_97" d="M61.47 169.26C61.15 170.04 60.08 171.43 64.32 171.43C64.4187 169.941 64.9622 168.516 65.88 167.34L61.47 169.26Z" fill="#3C4043" stroke="#3C4043" stroke-linecap="round" stroke-linejoin="round"/>
<path id="Vector_98" d="M169.22 149.47H159.55C152.04 149.47 148.83 147.75 148.83 147.75C146.94 147.98 143.25 148.52 143.25 148.52V142.82C148.96 142.95 151.54 143.5 155.62 143.5C167.13 143.5 169.22 149.47 169.22 149.47Z" fill="#FBA089" stroke="#FBA089" stroke-linecap="round" stroke-linejoin="round"/>
<path id="Vector_99" d="M61.47 169.27C61.47 169.27 74.6 132.59 81.67 119.58C88.99 106.12 95.67 103.25 101.79 103.25C107.91 103.25 112.1 105.07 115.27 109.72C117.07 112.34 133.36 139.72 133.36 139.72L149.36 142.23V147.99C149.36 147.99 140.3 149.11 136.75 149.66C129.35 150.8 126.24 146.12 124.27 143.37C121.74 139.85 118.99 136.47 116.27 133.07C115.749 132.139 115.073 131.303 114.27 130.6C114.34 130.6 113.1 133.89 112.96 134.21C112.411 135.486 111.683 136.678 110.8 137.75C109.18 139.68 107.04 141.09 105.24 142.85C101.67 146.36 100.24 150.85 98.88 155.57C98.676 156.586 98.4088 157.588 98.08 158.57C83.47 160.72 71.54 164.28 61.47 169.27Z" fill="white" stroke="#3C4043" stroke-linecap="round" stroke-linejoin="round"/>
<g id="right arm">
<path id="Vector_100" d="M160.52 149.34H150.85C143.34 149.34 140.14 147.61 140.14 147.61C138.24 147.85 134.55 148.38 134.55 148.38V142.69C140.26 142.81 142.84 143.36 146.92 143.36C158.47 143.36 160.52 149.34 160.52 149.34Z" fill="#FBA089" stroke="#FBA089" stroke-linecap="round" stroke-linejoin="round"/>
<path id="Vector_101" d="M134.55 142.69C140.26 142.81 142.84 143.36 146.92 143.36C158.43 143.36 160.52 149.36 160.52 149.36" stroke="#3C4043" stroke-linecap="round" stroke-linejoin="round"/>
<g id="Vector_102">
<path d="M99.52 116.61L111.71 139.73L133.51 141.47L134.81 150.54C134.81 150.54 119.01 153.98 114.33 154.84C109.65 155.7 102.1 155.59 96.39 146.19L85.08 127.58" fill="white"/>
<path d="M99.52 116.61L111.71 139.73L133.51 141.47L134.81 150.54C134.81 150.54 119.01 153.98 114.33 154.84C109.65 155.7 102.1 155.59 96.39 146.19L85.08 127.58" stroke="#3C4043" stroke-linecap="round" stroke-linejoin="round"/>
</g>
<path id="Vector_103" d="M111.71 139.73L108.32 139.38" stroke="#3C4043" stroke-linecap="round" stroke-linejoin="round"/>
<path id="Vector_104" d="M111.71 139.73L109 139.54" stroke="#3C4043" stroke-linecap="round" stroke-linejoin="round"/>
</g>
<path id="Vector_105" d="M98.03 103.58C100.15 101.47 101.57 96.1501 101.57 96.1501C101.971 95.9916 102.294 95.6811 102.468 95.2861C102.643 94.8911 102.654 94.4434 102.5 94.0401C102.424 93.842 102.308 93.6616 102.16 93.5101C101.826 93.0499 101.688 92.4759 101.777 91.9142C101.866 91.3525 102.175 90.8493 102.635 90.5151C103.095 90.1809 103.669 90.0432 104.231 90.1323C104.793 90.2214 105.296 90.5299 105.63 90.9901C107.4 93.1101 104.93 95.2401 106.7 95.2401C108.47 95.2401 107.31 91.6301 109.84 89.9401C111.545 88.9999 113.437 88.45 115.38 88.3301C117.5 92.9301 116.95 105.61 112.65 103.46C111.423 102.839 110.24 102.134 109.11 101.35C108.41 103.46 108.31 104.27 107.59 106.35C111.84 114.13 112.91 117.35 111.13 118.35C109.35 119.35 99.47 107.83 98.03 103.58Z" fill="#FBA089" stroke="#FBA089" stroke-linecap="round" stroke-linejoin="round"/>
<path id="Vector_106" fill-rule="evenodd" clip-rule="evenodd" d="M96.12 72.9001C96.3554 72.6698 96.5151 72.3731 96.5776 72.0497C96.6401 71.7264 96.6026 71.3916 96.47 71.0901C96.05 70.2801 94.79 70.0901 93.67 70.7001C92.55 71.3101 91.97 72.4201 92.39 73.2301C92.6021 73.5482 92.912 73.7885 93.2729 73.9148C93.6337 74.0411 94.0259 74.0465 94.39 73.9301C92.92 75.0601 92.19 76.5001 92.7 77.4701C93.21 78.4401 94.45 78.6001 95.97 78.2601C93.6 80.3201 92.54 82.9301 93.58 84.6001C94.82 86.6001 98.58 86.5101 102.09 84.3701C105.6 82.2301 107.32 78.8601 106.09 76.8501C105.09 75.3001 102.66 75.0001 100 75.9201C100.82 74.9801 101.15 73.9801 100.76 73.2501C100.14 72.1401 98.16 71.9901 96.12 72.9001Z" fill="#FCC934"/>
<g id="Vector_107">
<path d="M96.12 72.9001L95.85 72.6701C95.8014 72.7331 95.775 72.8105 95.775 72.8901C95.775 72.9697 95.8014 73.0471 95.85 73.1101C95.8962 73.1745 95.9635 73.2208 96.0402 73.2408C96.1169 73.2609 96.1982 73.2536 96.27 73.2201L96.12 72.9001ZM94.39 73.9301L94.61 74.2101C94.6735 74.1608 94.7182 74.0911 94.7364 74.0128C94.7546 73.9345 94.7453 73.8523 94.71 73.7801C94.6794 73.7081 94.6248 73.6489 94.5556 73.6125C94.4864 73.5761 94.4067 73.5646 94.33 73.5801L94.39 73.9301ZM95.94 78.2601L96.17 78.5201C96.2342 78.4546 96.2701 78.3667 96.2701 78.2751C96.2701 78.1835 96.2342 78.0955 96.17 78.0301C96.1287 77.9766 96.0724 77.9366 96.0083 77.9152C95.9442 77.8938 95.8752 77.892 95.81 77.9101L95.94 78.2601ZM99.97 75.9201L99.71 75.6901C99.6622 75.7515 99.6362 75.8272 99.6362 75.9051C99.6362 75.983 99.6622 76.0586 99.71 76.1201C99.7553 76.183 99.8196 76.2296 99.8935 76.253C99.9673 76.2765 100.047 76.2754 100.12 76.2501L99.97 75.9201ZM96.4 73.1301C96.6782 72.8449 96.8649 72.4832 96.9362 72.0912C97.0075 71.6992 96.9601 71.2949 96.8 70.9301L96.17 71.2601C96.2635 71.4994 96.2839 71.7611 96.2287 72.0121C96.1736 72.263 96.0453 72.492 95.86 72.6701L96.4 73.1301ZM96.8 70.9301C96.6579 70.6695 96.4543 70.4476 96.2067 70.2837C95.9592 70.1199 95.6754 70.0191 95.38 69.9901C94.7314 69.9174 94.0759 70.0429 93.5 70.3501L93.83 70.9801C94.2701 70.7312 94.7781 70.6296 95.28 70.6901C95.4586 70.7053 95.6312 70.762 95.784 70.8558C95.9368 70.9495 96.0656 71.0777 96.16 71.2301L96.8 70.9301ZM93.47 70.3801C92.8879 70.6773 92.4101 71.1447 92.1 71.7201C91.9667 71.98 91.8971 72.2679 91.8971 72.5601C91.8971 72.8522 91.9667 73.1402 92.1 73.4001L92.73 73.0701C92.654 72.9144 92.6145 72.7434 92.6145 72.5701C92.6145 72.3968 92.654 72.2258 92.73 72.0701C92.9769 71.6358 93.3501 71.287 93.8 71.0701L93.47 70.3801ZM92.05 73.3801C92.297 73.7578 92.6582 74.0468 93.0808 74.2051C93.5035 74.3634 93.9657 74.3826 94.4 74.2601L94.27 73.5601C93.9854 73.6571 93.677 73.6599 93.3907 73.5681C93.1043 73.4762 92.8551 73.2946 92.68 73.0501L92.05 73.3801ZM94.12 73.6301C93.4094 74.1596 92.8282 74.8434 92.42 75.6301C92.2515 75.9336 92.1549 76.2717 92.1376 76.6185C92.1202 76.9652 92.1826 77.3113 92.32 77.6301L92.95 77.3001C92.8561 77.0764 92.8171 76.8335 92.8362 76.5917C92.8554 76.3499 92.9321 76.1162 93.06 75.9101C93.4191 75.2335 93.9289 74.6484 94.55 74.2001L94.12 73.6301ZM92.32 77.6301C92.4801 77.8915 92.6939 78.1159 92.9474 78.2883C93.2008 78.4607 93.4881 78.5772 93.79 78.6301C94.5156 78.7702 95.2632 78.7498 95.98 78.5701L95.83 77.8801C95.2157 78.0399 94.5733 78.0604 93.95 77.9401C93.7451 77.9102 93.5493 77.8357 93.3764 77.7216C93.2036 77.6075 93.058 77.4568 92.95 77.2801L92.32 77.6301ZM95.67 77.9901C94.5503 78.9226 93.6693 80.1087 93.1 81.4501C92.8574 81.9756 92.7419 82.5509 92.7627 83.1294C92.7836 83.7079 92.9402 84.2733 93.22 84.7801L93.82 84.4101C93.598 83.9948 93.4769 83.533 93.4665 83.0622C93.4561 82.5914 93.5566 82.1248 93.76 81.7001C94.2934 80.4683 95.1086 79.3791 96.14 78.5201L95.67 77.9901ZM93.22 84.7801C93.6413 85.3571 94.2095 85.8107 94.8654 86.0939C95.5214 86.377 96.2412 86.4793 96.95 86.3901C98.8224 86.2801 100.634 85.6876 102.21 84.6701L101.84 84.0701C100.369 85.0216 98.6784 85.5794 96.93 85.6901C96.3449 85.7688 95.7493 85.6919 95.2034 85.4672C94.6574 85.2425 94.1802 84.8779 93.82 84.4101L93.22 84.7801ZM102.22 84.6701C103.842 83.6972 105.183 82.3186 106.11 80.6701C106.499 80.072 106.725 79.3821 106.763 78.6695C106.802 77.9569 106.653 77.2467 106.33 76.6101L105.73 76.9801C105.993 77.5205 106.107 78.1211 106.062 78.7203C106.016 79.3195 105.812 79.8957 105.47 80.3901C104.595 81.907 103.345 83.174 101.84 84.0701L102.22 84.6701ZM106.33 76.6701C106.029 76.2311 105.634 75.8644 105.174 75.5964C104.714 75.3284 104.2 75.1657 103.67 75.1201C102.371 74.9799 101.057 75.1407 99.83 75.5901L100.06 76.2601C101.182 75.85 102.382 75.6995 103.57 75.8201C103.997 75.8429 104.414 75.9596 104.791 76.1619C105.167 76.3641 105.495 76.6469 105.75 76.9901L106.33 76.6701ZM100.21 76.1601C101.05 75.1601 101.51 74.0301 101.01 73.0901L100.39 73.4201C100.67 73.9501 100.47 74.7901 99.68 75.7001L100.21 76.1601ZM101.01 73.0901C100.796 72.7538 100.5 72.4769 100.15 72.2847C99.801 72.0925 99.4089 71.9912 99.01 71.9901C97.9769 71.9527 96.9493 72.1582 96.01 72.5901L96.29 73.2301C97.1299 72.8462 98.047 72.6614 98.97 72.6901C99.2566 72.6787 99.5415 72.7396 99.7983 72.8672C100.055 72.9947 100.276 73.1849 100.44 73.4201L101.01 73.0901Z" fill="#3C4043"/>
<path d="M96.47 71.0901L96.79 70.9301M93.67 70.7001L93.47 70.3801M93.47 70.3801C92.8879 70.6773 92.4101 71.1447 92.1 71.7201C91.9667 71.98 91.8971 72.2679 91.8971 72.5601C91.8971 72.8522 91.9667 73.1402 92.1 73.4001L92.73 73.0701C92.654 72.9144 92.6145 72.7434 92.6145 72.5701C92.6145 72.3968 92.654 72.2258 92.73 72.0701C92.9769 71.6358 93.3501 71.287 93.8 71.0701L93.47 70.3801ZM92.39 73.2301L92.71 73.0701M92.67 77.4701L92.98 77.3101M93.55 84.6001L93.25 84.7801M102.06 84.3701L101.87 84.0701M106.06 76.8501L106.36 76.6601M100.73 73.2501L101.04 73.0801M96.8 70.9301C96.9601 71.2949 97.0075 71.6992 96.9362 72.0912C96.8649 72.4832 96.6782 72.8449 96.4 73.1301L95.86 72.6701C96.0453 72.492 96.1736 72.263 96.2287 72.0121C96.2839 71.7611 96.2635 71.4994 96.17 71.2601L96.8 70.9301ZM96.8 70.9301C96.6579 70.6695 96.4543 70.4476 96.2067 70.2837C95.9592 70.1199 95.6754 70.0191 95.38 69.9901C94.7314 69.9174 94.0759 70.0429 93.5 70.3501L93.83 70.9801C94.2701 70.7312 94.7781 70.6296 95.28 70.6901C95.4586 70.7053 95.6312 70.762 95.784 70.8558C95.9368 70.9495 96.0656 71.0777 96.16 71.2301L96.8 70.9301ZM92.32 77.6301C92.1826 77.3113 92.1202 76.9652 92.1376 76.6185C92.1549 76.2717 92.2515 75.9336 92.42 75.6301C92.8282 74.8434 93.4094 74.1596 94.12 73.6301L94.55 74.2001C93.9289 74.6484 93.4191 75.2335 93.06 75.9101C92.9321 76.1162 92.8554 76.3499 92.8362 76.5917C92.8171 76.8335 92.8561 77.0764 92.95 77.3001L92.32 77.6301ZM92.32 77.6301C92.4801 77.8915 92.6939 78.1159 92.9474 78.2883C93.2008 78.4607 93.4881 78.5772 93.79 78.6301C94.5156 78.7702 95.2632 78.7498 95.98 78.5701L95.83 77.8801C95.2157 78.0399 94.5733 78.0604 93.95 77.9401C93.7451 77.9102 93.5493 77.8357 93.3764 77.7216C93.2036 77.6075 93.058 77.4568 92.95 77.2801L92.32 77.6301ZM93.22 84.7801C92.9402 84.2733 92.7836 83.7079 92.7627 83.1294C92.7419 82.5509 92.8574 81.9756 93.1 81.4501C93.6693 80.1087 94.5503 78.9226 95.67 77.9901L96.14 78.5201C95.1086 79.3791 94.2934 80.4683 93.76 81.7001C93.5566 82.1248 93.4561 82.5914 93.4665 83.0622C93.4769 83.533 93.598 83.9948 93.82 84.4101M93.22 84.7801L93.82 84.4101M93.22 84.7801C93.6413 85.3571 94.2095 85.8107 94.8654 86.0939C95.5214 86.377 96.2412 86.4793 96.95 86.3901C98.8224 86.2801 100.634 85.6876 102.21 84.6701L101.84 84.0701M93.82 84.4101C94.1802 84.8779 94.6574 85.2425 95.2034 85.4672C95.7493 85.6919 96.3449 85.7688 96.93 85.6901C98.6784 85.5794 100.369 85.0216 101.84 84.0701M101.84 84.0701C103.345 83.174 104.595 81.907 105.47 80.3901C105.812 79.8957 106.016 79.3195 106.062 78.7203C106.107 78.1211 105.993 77.5205 105.73 76.9801L106.33 76.6101C106.653 77.2467 106.802 77.9569 106.763 78.6695C106.725 79.3821 106.499 80.072 106.11 80.6701C105.183 82.3186 103.842 83.6972 102.22 84.6701L101.84 84.0701ZM101.01 73.0901C101.51 74.0301 101.05 75.1601 100.21 76.1601L99.68 75.7001C100.47 74.7901 100.67 73.9501 100.39 73.4201L101.01 73.0901ZM101.01 73.0901C100.796 72.7538 100.5 72.4769 100.15 72.2847C99.801 72.0925 99.4089 71.9912 99.01 71.9901C97.9769 71.9527 96.9493 72.1582 96.01 72.5901L96.29 73.2301C97.1299 72.8462 98.047 72.6614 98.97 72.6901C99.2566 72.6787 99.5415 72.7396 99.7983 72.8672C100.055 72.9947 100.276 73.1849 100.44 73.4201L101.01 73.0901ZM96.12 72.9001L95.85 72.6701C95.8014 72.7331 95.775 72.8105 95.775 72.8901C95.775 72.9697 95.8014 73.0471 95.85 73.1101C95.8962 73.1745 95.9635 73.2208 96.0402 73.2408C96.1169 73.2609 96.1982 73.2536 96.27 73.2201L96.12 72.9001ZM94.39 73.9301L94.61 74.2101C94.6735 74.1608 94.7182 74.0911 94.7364 74.0128C94.7546 73.9345 94.7453 73.8523 94.71 73.7801C94.6794 73.7081 94.6248 73.6489 94.5556 73.6125C94.4864 73.5761 94.4067 73.5646 94.33 73.5801L94.39 73.9301ZM95.94 78.2601L96.17 78.5201C96.2342 78.4546 96.2701 78.3667 96.2701 78.2751C96.2701 78.1835 96.2342 78.0955 96.17 78.0301C96.1287 77.9766 96.0724 77.9366 96.0083 77.9152C95.9442 77.8938 95.8752 77.892 95.81 77.9101L95.94 78.2601ZM99.97 75.9201L99.71 75.6901C99.6622 75.7515 99.6362 75.8272 99.6362 75.9051C99.6362 75.983 99.6622 76.0586 99.71 76.1201C99.7553 76.183 99.8196 76.2296 99.8935 76.253C99.9673 76.2765 100.047 76.2754 100.12 76.2501L99.97 75.9201ZM92.05 73.3801C92.297 73.7578 92.6582 74.0468 93.0808 74.2051C93.5035 74.3634 93.9657 74.3826 94.4 74.2601L94.27 73.5601C93.9854 73.6571 93.677 73.6599 93.3907 73.5681C93.1043 73.4762 92.8551 73.2946 92.68 73.0501L92.05 73.3801ZM106.33 76.6701C106.029 76.2311 105.634 75.8644 105.174 75.5964C104.714 75.3284 104.2 75.1657 103.67 75.1201C102.371 74.9799 101.057 75.1407 99.83 75.5901L100.06 76.2601C101.182 75.85 102.382 75.6995 103.57 75.8201C103.997 75.8429 104.414 75.9596 104.791 76.1619C105.167 76.3641 105.495 76.6469 105.75 76.9901L106.33 76.6701Z" stroke="#3C4043" stroke-width="0.5" stroke-miterlimit="10"/>
</g>
<path id="Vector_108" d="M101.57 96.1502C99.57 95.7902 97.64 95.2702 96.76 93.6202C94.9 90.1602 97.19 85.3202 101.86 82.8102C106.53 80.3002 111.54 81.2402 113.7 84.5202C114.471 85.6969 115.039 86.995 115.38 88.3602C113.436 88.487 111.543 89.0437 109.84 89.9902C107.31 91.6802 108.48 95.2902 106.7 95.2902C104.92 95.2902 107.4 93.1702 105.63 91.0402C105.285 90.6202 104.793 90.3471 104.254 90.2764C103.716 90.2057 103.17 90.3427 102.728 90.6595C102.287 90.9764 101.982 91.4494 101.877 91.9825C101.771 92.5156 101.873 93.069 102.16 93.5302C102.305 93.6896 102.418 93.8761 102.491 94.0791C102.564 94.2821 102.597 94.4975 102.586 94.713C102.576 94.9285 102.524 95.1399 102.432 95.335C102.339 95.5302 102.21 95.7052 102.05 95.8502C101.908 95.9765 101.746 96.0779 101.57 96.1502Z" fill="#FCC934" stroke="#3C4043" stroke-linecap="round" stroke-linejoin="round"/>
<path id="Vector_109" d="M109.1 101.38C107.45 100.31 106.15 99.0401 105.92 98.1401C106.202 100.088 107.116 101.891 108.52 103.27L109.1 101.38Z" fill="#3C4043" stroke="#3C4043" stroke-linecap="round" stroke-linejoin="round"/>
<path id="Vector_110" d="M115.36 115.93C117.86 119.66 118.36 126.02 114.36 129.75" stroke="#3C4043" stroke-linecap="round" stroke-linejoin="round"/>
<g id="laptop-2">
<path id="Vector_111" d="M185.01 150.29H151.08L150.42 153.53H184.35L185.01 150.29Z" fill="white" stroke="#3C4043" stroke-linecap="round" stroke-linejoin="round"/>
<path id="Vector_112" d="M177.37 122.87H215.58L208.75 153.53H170.54L177.37 122.87Z" fill="white" stroke="#3C4043" stroke-linecap="round" stroke-linejoin="round"/>
</g>
<path id="Vector_113" d="M51.35 166.79H89.85C94.25 166.79 97.85 170.79 97.85 175.68V190.82" stroke="#3C4043" stroke-miterlimit="10"/>
</g>
<g id="big plant">
<path id="Vector_114" d="M404.23 107.99C404.23 107.99 399.34 106.22 394.82 99.59C391.42 94.59 390.52 90.85 391.92 89.9C393.32 88.95 396.47 91.16 399.87 96.16C404.39 102.79 404.23 107.99 404.23 107.99Z" fill="#5BB974" stroke="#5BB974" stroke-linecap="round" stroke-linejoin="round"/>
<path id="Vector_115" d="M396.18 96.1602L404.23 107.99" stroke="#3C4043" stroke-linecap="round" stroke-linejoin="round"/>
<path id="Vector_116" d="M402.57 122.81C402.57 122.81 397.37 123.04 390.68 118.61C385.68 115.28 383.38 112.15 384.31 110.74C385.24 109.33 389 110.18 394.04 113.52C400.74 117.99 402.57 122.81 402.57 122.81Z" fill="#5BB974" stroke="#5BB974" stroke-linecap="round" stroke-linejoin="round"/>
<path id="Vector_117" d="M390.63 114.92L402.57 122.81" stroke="#3C4043" stroke-linecap="round" stroke-linejoin="round"/>
<path id="Vector_118" d="M406.47 114.55C406.47 114.55 411.11 114.55 416.95 110.43C421.34 107.31 423.26 104.43 422.39 103.21C421.52 101.99 418.18 102.86 413.79 105.99C407.94 110.15 406.47 114.55 406.47 114.55Z" fill="#5BB974" stroke="#5BB974" stroke-linecap="round" stroke-linejoin="round"/>
<path id="Vector_119" d="M416.87 107.13L406.47 114.55" stroke="#3C4043" stroke-linecap="round" stroke-linejoin="round"/>
<path id="Vector_120" d="M407.96 154.89H400.47C399.176 154.891 397.895 154.638 396.7 154.144C395.504 153.65 394.418 152.926 393.502 152.012C392.586 151.098 391.86 150.013 391.364 148.819C390.867 147.624 390.611 146.343 390.61 145.05V131.23H417.78V145.04C417.78 147.647 416.746 150.148 414.906 151.994C413.065 153.841 410.567 154.882 407.96 154.89Z" fill="#FBBC04" stroke="#FBBC04" stroke-linecap="round" stroke-linejoin="round"/>
<path id="Vector_121" d="M404.23 107.99V131.23" stroke="#3C4043" stroke-linecap="round" stroke-linejoin="round"/>
<path id="Vector_122" d="M406.47 114.55L404.24 116.41" stroke="#3C4043" stroke-linecap="round" stroke-linejoin="round"/>
<path id="Vector_123" d="M402.57 122.81L404.23 123.95" stroke="#3C4043" stroke-linecap="round" stroke-linejoin="round"/>
</g>
<g id="small plant">
<path id="Vector_124" d="M378 129.93C376.68 131.25 375.1 134.44 374 136.98" stroke="#3C4043" stroke-linecap="round" stroke-linejoin="round"/>
<path id="Vector_125" d="M390.55 128.36C388.768 129.786 386.647 130.727 384.394 131.091C382.14 131.456 379.831 131.231 377.69 130.44C377.69 130.44 379.19 126.19 390.55 128.36Z" fill="#188038" stroke="#188038" stroke-linecap="round" stroke-linejoin="round"/>
<path id="Vector_126" d="M376.47 123.07C374.78 126.21 373.24 132.83 372.3 136.98" stroke="#3C4043" stroke-linecap="round" stroke-linejoin="round"/>
<path id="Vector_127" d="M390.55 118.61C390.55 118.61 381.22 116.99 376.47 123.07C376.47 123.07 383.93 125.43 390.55 118.61Z" fill="#188038" stroke="#188038" stroke-linecap="round" stroke-linejoin="round"/>
<path id="Vector_128" d="M371.36 121.82C371.47 124.88 370.9 131.82 370.52 136.98" stroke="#3C4043" stroke-linecap="round" stroke-linejoin="round"/>
<path id="Vector_129" d="M368.02 105.72C368.02 105.72 364.3 116.87 371.35 121.82C371.36 121.82 372.9 110.1 368.02 105.72Z" fill="#188038" stroke="#188038" stroke-linecap="round" stroke-linejoin="round"/>
<path id="Vector_130" d="M358.92 123.66C363.65 126.36 366.97 133.35 368.32 136.98" stroke="#3C4043" stroke-linecap="round" stroke-linejoin="round"/>
<path id="Vector_131" d="M347.81 126.7C347.81 126.7 351.61 122.11 358.91 123.7C357.501 125.153 355.726 126.199 353.773 126.727C351.819 127.255 349.759 127.246 347.81 126.7Z" fill="#188038" stroke="#188038" stroke-linecap="round" stroke-linejoin="round"/>
<path id="Vector_132" d="M358.47 132.34C358.47 132.34 352.27 129.14 346.82 132.78C346.77 132.78 352.78 136.47 358.47 132.34Z" fill="#188038" stroke="#188038" stroke-linecap="round" stroke-linejoin="round"/>
<path id="Vector_133" d="M358.47 132.34C359.67 132.79 362.39 135.19 364.4 137.07" stroke="#3C4043" stroke-linecap="round" stroke-linejoin="round"/>
<path id="Vector_134" d="M358.47 137.16H381.94C381.94 137.16 379.1 154.16 370.21 154.16C361.32 154.16 360.35 139.14 358.47 137.16Z" fill="white" stroke="#3C4043" stroke-linecap="round" stroke-linejoin="round"/>
</g>
<g id="table">
<path id="Vector_135" d="M501.41 158.63L474.24 260.7" stroke="#3C4043" stroke-linecap="round" stroke-linejoin="round"/>
<path id="Vector_136" d="M533.52 158.63L560.69 260.7" stroke="#3C4043" stroke-linecap="round" stroke-linejoin="round"/>
<path id="Vector_137" d="M200.07 158.99L227.4 260.66" stroke="#3C4043" stroke-linecap="round" stroke-linejoin="round"/>
<path id="Vector_138" d="M168.47 158.63L141.03 260.7" stroke="#3C4043" stroke-linecap="round" stroke-linejoin="round"/>
<path id="Vector_139" d="M130.06 154.67H574.31V158.67H130.06V154.67Z" fill="white" stroke="#3C4043" stroke-linecap="round" stroke-linejoin="round"/>
</g>
<g id="dog">
<path id="Vector_140" d="M427.15 256.36C437.15 262.47 452.7 258.7 454.81 258.07C456.92 257.44 456.93 255.2 454.39 255.54C443.39 257.02 433.26 255.54 428.61 251.94C425.47 249.52 417.2 250.25 427.15 256.36Z" fill="white" stroke="#3C4043" stroke-linecap="round" stroke-linejoin="round"/>
<path id="Vector_141" d="M388.09 238.46C388.09 245.59 386.95 256.79 385.76 260.52H379.53C379.53 258.44 380.92 259.27 382.53 257.22C384.14 255.17 383.83 241.57 381.68 231C380.59 225.82 388.09 231.34 388.09 238.46Z" fill="white" stroke="#3C4043" stroke-linecap="round" stroke-linejoin="round"/>
<path id="Vector_142" d="M388.1 238.2C388.1 239.64 388.05 241.27 387.97 242.97L382.74 237.46C382.45 235.17 382.09 232.89 381.65 230.73C380.6 225.56 388.1 231.07 388.1 238.2Z" fill="#3C4043" stroke="#3C4043" stroke-linecap="round" stroke-linejoin="round"/>
<path id="Vector_143" d="M397.87 202.21C399.23 207.46 399.23 209.5 403.51 214.75C407.79 220 421.59 229.02 426.04 234.75C430.49 240.48 434.34 246.75 429.54 256.25C427.7 259.88 423.38 260.49 420.65 260.49L409.87 252.49C404.87 247.49 403.18 245.85 396.87 241.71C393.1 239.63 385.99 237.14 380.55 230.09C377.36 225.96 376.99 220.03 379.55 212.73C382.11 205.43 383.42 196.73 381.13 193.67C379.08 190.96 371.39 188.6 375.13 178.32C377.791 179.578 380.534 180.654 383.34 181.54C384.88 181.88 385.88 180.87 388.34 180.87C390.22 180.87 393.63 183.93 394.66 185.28C395.69 186.63 396.47 196.99 397.87 202.21Z" fill="white" stroke="#3C4043" stroke-linecap="round" stroke-linejoin="round"/>
<path id="Vector_144" d="M374.7 180.64C375.894 180.597 377.045 180.181 377.99 179.45L375.37 178.3C375.37 178.3 374.99 179.47 374.7 180.64Z" fill="#3C4043" stroke="#3C4043" stroke-linecap="round" stroke-linejoin="round"/>
<path id="Vector_145" d="M421.47 260.52H403.2C403.2 258.28 403.2 256.52 413.45 256.52C407.12 253.99 408.4 247.02 410.92 243.87" fill="white"/>
<path id="Vector_146" d="M421.47 260.52H403.2C403.2 258.28 403.2 256.52 413.45 256.52C407.12 253.99 408.4 247.02 410.92 243.87" stroke="#3C4043" stroke-linecap="round" stroke-linejoin="round"/>
<path id="Vector_147" d="M399.64 231.65C399.64 236.24 399.88 252.22 399.88 252.22C399.849 255.006 399.571 257.783 399.05 260.52H391.57C391.57 257.88 394.42 259.04 395.05 256.77C395.9 253.72 394.37 240.31 393.86 237.77C393.129 234.862 391.801 232.137 389.96 229.77" fill="white"/>
<path id="Vector_148" d="M399.64 231.65C399.64 236.24 399.88 252.22 399.88 252.22C399.849 255.006 399.571 257.783 399.05 260.52H391.57C391.57 257.88 394.42 259.04 395.05 256.77C395.9 253.72 394.37 240.31 393.86 237.77C393.129 234.862 391.801 232.137 389.96 229.77" stroke="#3C4043" stroke-linecap="round" stroke-linejoin="round"/>
<path id="Vector_149" d="M390.82 196.46C389.95 198.66 390.64 200.54 392.17 200.7C393.7 200.86 395.9 199.85 397.77 199.17C399.64 198.49 400.14 198.67 399.98 195.45C399.82 192.23 396.92 188.66 395.73 187.64C396.07 191.2 392.34 192.56 390.82 196.46Z" fill="white" stroke="#3C4043" stroke-linecap="round" stroke-linejoin="round"/>
<path id="Vector_150" d="M388.91 183.68C388.91 183.526 388.864 183.375 388.779 183.247C388.693 183.119 388.571 183.019 388.429 182.96C388.286 182.9 388.129 182.885 387.978 182.915C387.827 182.945 387.688 183.02 387.578 183.129C387.469 183.238 387.395 183.377 387.365 183.528C387.335 183.679 387.35 183.836 387.409 183.979C387.468 184.121 387.568 184.243 387.697 184.329C387.825 184.414 387.976 184.46 388.13 184.46C388.232 184.463 388.332 184.445 388.427 184.408C388.522 184.371 388.608 184.316 388.68 184.245C388.753 184.174 388.811 184.089 388.85 183.996C388.89 183.902 388.91 183.802 388.91 183.7V183.68Z" fill="#3C4043"/>
</g>
</g>
<defs>
<clipPath id="clip0_132_34208">
<rect width="696" height="262" fill="white"/>
</clipPath>
</defs>
</svg>
